<svg version="1.1" xmlns="http://www.w3.org/2000/svg" xmlns:xlink="http://www.w3.org/1999/xlink" width="561.28247" height="462.82882" viewBox="0,0,561.28247,462.82882"><defs><radialGradient cx="240.00004" cy="175.49999" r="280.64123" gradientUnits="userSpaceOnUse" id="color-1"><stop offset="0" stop-color="#c9beba"/><stop offset="1" stop-color="#645c57"/></radialGradient><radialGradient cx="236.50004" cy="180" r="231.41441" gradientUnits="userSpaceOnUse" id="color-2"><stop offset="0" stop-color="#ffffff"/><stop offset="1" stop-color="#ffffff" stop-opacity="0"/></radialGradient><linearGradient x1="252.62503" y1="85.0557" x2="252.62503" y2="93.27309" gradientUnits="userSpaceOnUse" id="color-3"><stop offset="0" stop-color="#beb3b9"/><stop offset="1" stop-color="#e5d8df"/></linearGradient></defs><g transform="translate(40.64122,51.41441)"><g data-paper-data="{&quot;isPaintingLayer&quot;:true}" fill-rule="nonzero" stroke-linejoin="miter" stroke-miterlimit="10" stroke-dasharray="" stroke-dashoffset="0" style="mix-blend-mode: normal"><path d="M-40.64122,360.32962v-369.65923h561.28247v369.65923z" fill="url(#color-1)" stroke="none" stroke-width="0" stroke-linecap="butt"/><path d="M5.08559,180c0,-127.80665 103.60776,-231.41441 231.41441,-231.41441c127.80665,0 231.41441,103.60776 231.41441,231.41441c0,127.80665 -103.60776,231.41441 -231.41441,231.41441c-127.80665,0 -231.41441,-103.60776 -231.41441,-231.41441z" fill="url(#color-2)" stroke="none" stroke-width="0" stroke-linecap="butt"/><path d="M149.14127,89.66441c0,0 -2.875,3.27009 -2.875,2.125c0,-0.26917 -0.22101,-1.06291 0.53123,-2.57378c0.93207,-1.87206 2.95692,-4.57748 3.99296,-5.58027c1.8144,-1.75617 4.72581,-3.34595 4.72581,-3.34595l208.375,1.5l0.25,7.875z" fill="#6c6763" stroke="none" stroke-width="0" stroke-linecap="butt"/><path d="M126.77166,294.62691c0,0 -2.62573,-5.78499 -1.63706,-12.59622c0.61214,-4.21724 5.0996,-9.99068 6.53178,-17.2749c1.76566,-8.98042 3.53789,-19.89947 5.10463,-33.38739c1.61898,-13.93759 3.04141,-30.59396 5.45294,-49.15985c0.72283,-5.56496 -1.57521,-43.14215 -0.82213,-48.2655c1.54465,-10.50851 7.18011,-21.26445 9.5975,-29.59329c3.0468,-10.4974 2.14404,-17.34977 2.14404,-17.34977c0,0 0.686,3.62608 1.51635,3.62815c1.47434,0.00367 9.11417,0.90037 12.85966,-0.17794c1.68534,-0.4852 -1.30578,-3.26442 0.74844,-3.41621c0.38879,-0.02872 0.78401,-0.05579 1.18553,-0.08125c0.67207,-0.04263 2.06853,-0.11478 2.06853,-0.11478l-0.10795,4.09528c0,0 26.38163,-0.38961 34.92483,-0.2301c0.78419,0.01464 0.39173,-3.78885 1.18598,-3.77427c2.44035,0.04481 4.92684,0.08871 7.45148,0.12761c0.72394,0.01116 0.54192,3.20372 1.27194,3.21395c2.97498,0.04172 9.42811,0.16372 12.74164,-0.7048c1.06718,-0.27972 0.01955,-2.37326 1.0122,-2.37064c0.73877,0.00195 -0.33881,2.44835 0.40344,2.45032c0.38334,0.00101 1.71716,0.35869 2.3029,-0.13294c0.82548,-0.69286 0.93213,-2.30559 1.47516,-2.30415c3.31041,0.00877 6.64894,0.01765 9.99993,0.02658c0.42389,0.00113 0.63504,1.36344 1.26971,1.99579c0.52864,0.52671 1.48719,0.34282 1.84079,0.34377c0.81456,0.00217 0.85187,-2.32897 1.66724,-2.32679c0.30696,0.00082 0.06851,2.81982 0.37555,2.82065c3.52566,0.00945 9.24305,0.66545 12.76919,-0.15667c0.98534,-0.22973 -0.21188,-2.83777 0.77156,-2.85425c2.40379,-0.0403 4.70974,-0.0713 7.09349,-0.09424c0.8343,-0.00803 0.38058,1.58003 0.62908,2.21471c0.28899,0.73813 1.20725,0.53933 1.20725,0.53933c0,0 27.82652,-0.34148 34.25632,-0.32494c0.9764,0.00251 -0.52816,-2.53924 0.18471,-2.53419c0.53591,0.00379 0.7714,3.00791 1.2786,3.01232c0.40758,0.00355 2.14098,0.49131 2.58834,-0.10874c0.63135,-0.84685 -0.02362,-2.86862 0.49293,-2.8624c1.28386,0.01547 -0.37235,3.67358 0.83345,3.98058c4.12513,1.05025 10.60834,-0.14351 12.98633,-0.06156c0.46821,0.01614 -0.44193,-3.60415 0.00157,-3.58827c0.48774,0.01746 0.9634,0.03467 1.43324,0.05143c3.09424,0.11038 5.93657,0.20133 10.32072,0.21599c1.08704,0.00364 0.74938,2.3812 2.18668,3.20876c1.14464,0.65905 3.66146,-0.08218 4.36956,-0.07981c1.13337,0.00379 9.96055,0.09817 10.89932,0.10131c1.49166,0.00499 3.14767,0.09839 3.83644,-0.56512c0.53519,-0.51556 -3.40445,1.86401 -4.48214,1.12031c-1.08531,-0.74896 0.68937,-4.61939 0.68937,-4.61939c0,0 7.84031,-4.60095 9.7,-4.61981c1.18932,0.11294 1.93743,2.1073 2.29726,2.60393c0.60697,0.83774 0.74315,1.74614 1.24163,2.87466c0.24689,0.55894 0.23543,0.95708 0.42874,1.38997c0.19698,0.44111 0.597,0.91832 0.66104,1.63853c0.66748,1.63372 0.33174,4.26409 0.61428,8.06978c0.16614,2.23783 0.34174,4.75238 0.51453,7.47834c0.86078,13.57931 1.65198,32.40459 0.85738,48.4005c-0.30864,6.21302 -1.78713,10.79422 -3.17121,15.5401c-1.19515,4.09807 -2.3199,8.31894 -2.56024,13.81928c-0.48561,11.11387 1.59481,16.49738 0.80519,26.79099c-0.55422,7.22483 -7.13261,16.49777 -7.55954,22.51672c-0.9746,13.73985 -0.93084,22.59034 -0.93084,25.24656c0,1.43323 0,22.80141 0,22.80141c0,0 -1.53969,12.21651 -4.6147,23.86999c-1.61176,6.10821 -1.93212,12.32112 -6.36517,15.98011c-4.11659,3.39779 -12.48229,-2.05685 -23.53648,-3.84534c-8.45621,-1.36814 -18.90564,1.04109 -27.71852,1.44058c-0.22795,0.01033 -6.36801,2.47014 -14.61451,1.298c-7.58627,-1.0783 -16.27151,-5.04159 -27.06757,-6.68609c-11.06055,-1.68479 -24.25293,-1.05997 -33.66184,-2.92169c-11.81355,-2.33752 -19.11521,-5.28786 -21.96422,-5.73642c-11.94815,-1.88121 -29.02133,-1.36284 -38.5003,-5.57831c-4.31903,-1.92075 -3.86727,-0.29177 -5.01838,-2.70356c-1.07872,-2.2601 -0.53836,-4.79848 -1.17683,-7.45053c-0.6209,-2.57904 -2.93613,-3.69492 -3.32402,-3.66894c-2.05092,0.13743 -4.84111,0.75392 -6.21795,3.75271c-1.32613,2.88832 -0.74947,6.51941 -1.83192,8.36307c-1.3894,2.36647 -4.05016,0.53671 -5.08832,0.59556c-4.51081,0.25572 -9.10852,-3.29655 -9.10852,-3.29655z" fill="#6c6763" stroke="none" stroke-width="0" stroke-linecap="butt"/><path d="M148.25,93.27309c0,0 0.07068,-3.13652 0.87193,-4.38289c0.67812,-1.05486 3.62807,-2.61711 3.62807,-2.61711l200.5,0.30435c0,0 2.10045,2.41124 2.74401,3.56031c0.60393,1.07832 1.00599,3.13534 1.00599,3.13534z" fill="url(#color-3)" stroke="none" stroke-width="0" stroke-linecap="butt"/><path d="M120.99893,285.50001c0,0 -2.59364,-5.39138 -1.61705,-11.73917c0.60466,-3.9303 5.03726,-9.31091 6.45193,-16.09952c1.74408,-8.36939 3.49464,-18.54551 5.04223,-31.11572c1.59919,-12.98928 3.00423,-28.51235 5.38628,-45.81502c0.71399,-5.18633 -1.55595,-40.20677 -0.81208,-44.98152c1.52577,-9.79351 7.09234,-19.81762 9.48018,-27.57976c3.00956,-9.78316 2.73519,-16.16929 2.73519,-16.16929l211.33333,0.66666c0,0 0.407,3.92958 0.8975,10.16311c0.16411,2.08557 0.33756,4.42903 0.50824,6.96952c0.85026,12.65537 1.63179,30.19979 0.84689,45.10734c-0.30487,5.79029 -1.76529,10.05978 -3.13245,14.48276c-1.18054,3.81924 -2.29154,7.75292 -2.52894,12.87902c-0.47968,10.35769 1.57531,15.37491 0.79534,24.96813c-0.54744,6.73325 -7.04541,15.37526 -7.46713,20.98468c-0.96268,12.80499 -0.91946,21.05329 -0.91946,23.52879c0,1.33572 0,21.25 0,21.25c0,0 -1.52087,11.3853 -4.55828,22.24588c-1.59206,5.6926 -1.9085,11.48279 -6.28736,14.89282c-4.06627,3.1666 -12.3297,-1.9169 -23.24876,-3.5837c-8.35284,-1.27506 -18.67453,0.97026 -27.37968,1.34256c-0.22517,0.00963 -6.29016,2.30207 -14.43586,1.20968c-7.49353,-1.00493 -16.0726,-4.69856 -26.73668,-6.23117c-10.92535,-1.57016 -23.95646,-0.98785 -33.25034,-2.7229c-11.66914,-2.17848 -18.88154,-4.92807 -21.69573,-5.34612c-11.80209,-1.75321 -28.66657,-1.27011 -38.02967,-5.19876c-4.26624,-1.79007 -3.81999,-0.27192 -4.95703,-2.51961c-1.06553,-2.10633 -0.53177,-4.47199 -1.16244,-6.9436c-0.61331,-2.40356 -2.90024,-3.44352 -3.28339,-3.4193c-2.02585,0.12808 -4.78194,0.70262 -6.14194,3.49737c-1.30991,2.6918 -0.74031,6.07583 -1.80953,7.79405c-1.37242,2.20546 -4.00065,0.50019 -5.02611,0.55504c-4.45567,0.23832 -8.99718,-3.07225 -8.99718,-3.07225z" fill="#e5d8df" stroke="none" stroke-width="0" stroke-linecap="butt"/><path d="M281.04249,181.33145c-0.36763,3.70015 -1.84438,8.34882 -4.88414,11.70919c-2.93555,3.24517 -7.38418,5.23351 -10.6315,7.07356c-1.61258,0.91375 0.85283,-2.07911 1.46735,-6.23286c0.41587,-2.81106 -0.39982,-6.15381 -1.49798,-9.17723c-1.43094,-3.93959 -4.59077,-7.31057 -8.02999,-9.47077c-2.88156,-1.80992 -6.05717,-2.72094 -7.63042,-2.87724c-2.08093,-0.20674 -8.10114,-0.37475 -12.48269,2.11637c-3.4353,1.95313 -6.1784,5.68101 -7.79405,8.56214c-3.72772,6.64751 0.94406,14.85523 -1.42018,12.62561c-2.41195,-2.27459 -6.71721,-5.34695 -8.80891,-9.3802c-2.41426,-4.65521 -2.42548,-10.37215 -2.05849,-14.06586c0.70304,-7.07603 4.47986,-15.86196 11.94589,-21.30322c6.3819,-4.65114 15.94622,-6.59292 23.20446,-5.87178c7.20988,0.71634 16.88327,4.31746 22.09933,10.69669c6.17804,7.55576 7.22839,18.47928 6.52135,25.59562z" fill="none" stroke="#000000" stroke-width="2" stroke-linecap="butt"/><path d="M151.0172,86.50002l2.1144,-0.00384" fill="none" stroke="#000000" stroke-width="2" stroke-linecap="round"/><path d="M357.27355,90.95301c1.65078,3.6052 3.56444,8.78463 3.89176,13.959c0.45845,7.24722 0.74955,16.52434 0.34127,26.64335c-0.27265,6.75754 0.62436,14.77048 0.00071,22.50008c-0.92626,11.48008 -5.22524,23.785 -6.27809,36.18028c-0.41059,4.83385 1.77668,10.33241 1.30133,15.13637c-1.02041,10.31271 -6.62771,14.75426 -7.57726,24.79533c-0.68557,7.24981 0.17123,16.30674 -0.1845,23.09149c-0.95412,18.19749 -2.48896,32.26256 -4.40306,43.52216c-1.83027,10.76652 -9.90234,14.02125 -10.85322,14.10865c-5.60244,0.51498 -13.85695,-4.3711 -21.71933,-4.9636c-11.46951,-0.86431 -21.92257,3.89848 -30.17863,3.29787c-13.60066,-0.98942 -34.83432,-6.72469 -47.37973,-7.70578c-9.02607,-0.70587 -20.80415,-1.33241 -24.21194,-1.76861c-0.93632,-0.11985 -9.26998,-3.4494 -21.94614,-5.29884c-10.31885,-1.50551 -24.40221,-1.36502 -32.50759,-3.11974c-7.15734,-1.54946 -9.4871,-5.25545 -9.4871,-5.25545c0,0 1.24648,-4.34433 0.57625,-6.1316c-0.24076,-0.64202 -0.93453,-1.41775 -1.70845,-2.13714c-1.29373,-1.20258 -2.81146,-1.4144 -2.81146,-1.4144c0,0 -1.34256,-0.11206 -2.67851,0.87597c-1.04029,0.76937 -2.07656,1.70048 -2.47177,2.57874c-1.04748,2.32773 -0.76523,8.85755 -0.76523,8.85755c0,0 -5.43147,1.19993 -7.78318,0.75897c-2.82074,-0.52889 -7.99151,-3.71673 -7.99151,-3.71673c0,0 -0.64169,-7.98885 1.17692,-16.73397c1.52631,-7.33955 5.36854,-14.43457 7.08542,-25.37618c3.1343,-19.97467 5.35468,-44.00673 7.78279,-64.99506c1.77748,-15.36432 -2.88354,-27.34393 -0.9448,-37.24206c2.42608,-12.38633 3.48367,-19.91638 9.39327,-33.96257c3.02043,-7.17909 1.14347,-11.29083 1.83945,-14.68656c0.77755,-3.79371 3.93934,-6.4456 3.93934,-6.4456" fill="none" stroke="#000000" stroke-width="2" stroke-linecap="round"/><path d="M274.22328,94.85199c0,0 1.97477,4.43084 2.91625,9.04062c2.25782,11.05505 6.29524,31.88072 7.66268,45.76032c2.36028,23.95684 3.90938,80.14664 3.90938,80.14664c0,0 -2.39636,7.33133 -14.83438,11.81209c-9.97973,3.59517 -29.46786,4.6528 -36.49693,3.89427c-6.88721,-0.74322 -19.49779,-2.55596 -27.41447,-8.41844c-8.8259,-6.5358 -12.61601,-17.14711 -12.61601,-17.14711c0,0 17.28518,-61.82138 26.04136,-85.21116c3.31889,-8.86552 8.78758,-19.57821 13.43469,-28.08791c4.66698,-8.54611 6.93253,-11.47477 6.93253,-11.47477" fill="none" stroke="#000000" stroke-width="2" stroke-linecap="round"/><path d="M198.0071,217.96855c0,0 7.67112,-4.37076 11.89913,-4.58758c4.31485,-0.22128 19.65027,-0.01337 19.65027,-0.01337" fill="none" stroke="#000000" stroke-width="2" stroke-linecap="round"/><path d="M268.99316,217.31129c0,0 10.96928,3.27901 14.26702,5.11042c3.03395,1.68492 5.45135,6.7206 5.45135,6.7206" fill="none" stroke="#000000" stroke-width="2" stroke-linecap="round"/><path d="M219.69729,205.8089c0,0 -7.28554,-0.72164 -13.7066,-0.17787c-5.09841,0.43177 -8.68022,2.14709 -14.55602,2.19547c-3.13986,0.02586 -4.94299,-1.91047 -7.85239,-1.86216c-9.16517,0.15219 -13.33283,0.84998 -17.89952,0.58903c-5.85897,-0.3348 -14.99975,-4.68814 -14.99975,-4.68814" fill="none" stroke="#000000" stroke-width="2" stroke-linecap="round"/><path d="M269.65047,209.09527c0,0 9.52255,3.35087 14.23387,4.08374c5.1147,0.79561 14.68641,1.83177 14.68641,1.83177l7.23007,6.57279c0,0 20.06221,1.30643 25.126,0.97618c5.014,-0.327 10.36707,6.91117 10.36707,6.91117" fill="none" stroke="#000000" stroke-width="2" stroke-linecap="round"/><path d="M266.69275,191.34874c0,10.6179 -5.99065,17.91086 -17.02906,17.91086c-11.03841,0 -21.63002,-7.95024 -21.63002,-18.56813c0,-10.6179 7.63385,-18.56813 18.67226,-18.56813c11.03841,0 19.98682,8.60752 19.98682,19.22541z" fill="none" stroke="#000000" stroke-width="2" stroke-linecap="butt"/><path d="M238.28893,232.00615l-6.19721,-9.57749l24.03763,4.88265" fill="none" stroke="#000000" stroke-width="2" stroke-linecap="round"/><path d="M231.34055,221.8653c0,0 0.66454,-5.31212 1.48609,-8.00682c0.73335,-2.40542 3.20874,-7.3923 3.20874,-7.3923" fill="none" stroke="#000000" stroke-width="2" stroke-linecap="round"/><path d="M224.39213,217.17045c0,0 3.52357,-5.13811 5.42259,-7.17039c1.62678,-1.74094 5.46947,-3.90946 5.46947,-3.90946" fill="none" stroke="#000000" stroke-width="2" stroke-linecap="round"/><path d="M266.08234,235.19866l-9.57749,-8.26293c0,0 0.37558,-6.34223 0.37558,-9.38971c0,-2.89109 -0.37558,-8.45073 -0.37558,-8.45073c0,0 1.61123,0.7824 2.14786,2.00658c1.06937,2.4395 3.86155,11.70238 3.86155,11.70238" fill="none" stroke="#000000" stroke-width="2" stroke-linecap="round"/><path d="M244.11052,196.13751c0,0 3.0854,-0.34414 4.39579,-0.05649c1.25362,0.27518 4.24274,1.74663 4.24274,1.74663" fill="none" stroke="#000000" stroke-width="2" stroke-linecap="round"/><path d="M240.16685,187.40507c0,2.07432 -1.63953,3.75588 -3.66198,3.75588c-2.02246,0 -3.66198,-1.68157 -3.66198,-3.75588c0,-2.07432 1.63953,-3.75588 3.66198,-3.75588c2.02246,0 3.66198,1.68157 3.66198,3.75588z" fill="#000000" stroke="none" stroke-width="2" stroke-linecap="butt"/><path d="M264.85767,192.27969c0,2.07432 -1.63952,3.75589 -3.66198,3.75589c-2.02246,0 -3.66199,-1.68157 -3.66199,-3.75589c0,-2.07432 1.63953,-3.75589 3.66199,-3.75589c2.02246,0 3.66198,1.68157 3.66198,3.75589z" fill="#000000" stroke="none" stroke-width="2" stroke-linecap="butt"/><path d="M262.05683,157.93337c0.21967,5.98037 -4.96972,11.02557 -11.59085,11.26878c-6.62113,0.24321 -12.16668,-4.40768 -12.38635,-10.38804c-0.21967,-5.98037 4.96972,-11.02557 11.59085,-11.26878c6.62113,-0.24321 12.16668,4.40768 12.38635,10.38804z" fill="none" stroke="#000000" stroke-width="2" stroke-linecap="butt"/><path d="M220.50203,161.31923c5.60173,1.20783 9.76683,5.75876 9.76683,11.18835c0,5.88102 -4.88649,10.73119 -11.19229,11.41886" fill="none" stroke="#000000" stroke-width="2" stroke-linecap="butt"/><path d="M279.8934,186.71989c-6.3058,-0.68767 -11.19229,-5.53784 -11.19229,-11.41886c0,-5.42959 4.16509,-9.98051 9.76683,-11.18835" data-paper-data="{&quot;index&quot;:null}" fill="none" stroke="#000000" stroke-width="2" stroke-linecap="butt"/><path d="M202.75257,171.93613c0.87196,2.92559 -0.96224,6.05461 -4.09681,6.98886c-3.13457,0.93422 -6.3825,-0.68007 -7.25446,-3.60566c-0.87196,-2.92559 1.74414,-3.43121 4.87869,-4.36545c3.13457,-0.93422 5.60061,-1.94333 6.47256,0.98226z" fill="none" stroke="#000000" stroke-width="1.5" stroke-linecap="butt"/><path d="M191.66925,175.29287c-0.46252,-0.01836 -0.90202,-0.08787 -1.30776,-0.2243c-2.16348,-0.72731 -3.47572,-3.09002 -4.08003,-5.11763c-1.13349,-3.8031 1.90022,-8.0642 6.77601,-9.51744c4.87579,-1.4532 9.7473,0.45178 10.88079,4.25488c0.53158,1.78356 1.30383,3.93814 0.24219,5.58631c-0.38757,0.60172 -0.98565,1.14388 -1.70498,1.62817" data-paper-data="{&quot;index&quot;:null}" fill="none" stroke="#000000" stroke-width="1.5" stroke-linecap="butt"/><path d="M197.67326,164.54896c0.47908,1.60746 -0.52249,3.32485 -2.23713,3.83588c-1.71464,0.51103 -3.493,-0.3778 -3.97209,-1.98525c-0.47908,-1.60746 0.52249,-3.32486 2.23714,-3.83589c1.71464,-0.51103 3.493,0.37781 3.97208,1.98526z" fill="none" stroke="#000000" stroke-width="1.5" stroke-linecap="butt"/><path d="M186.33235,167.04556c1.66514,-0.41376 3.35131,0.46925 3.81589,2.02795c0.47908,1.60746 -0.5225,3.32486 -2.23714,3.83589c-0.06639,0.01979 -0.13285,0.03746 -0.19933,0.05311" fill="none" stroke="#000000" stroke-width="1.5" stroke-linecap="butt"/><path d="M204.45639,168.3099c-0.0642,0.02334 -0.12953,0.04492 -0.19589,0.06471c-1.71464,0.51103 -3.493,-0.3778 -3.97209,-1.98525c-0.46455,-1.55868 0.46307,-3.22075 2.08303,-3.78608" data-paper-data="{&quot;index&quot;:null}" fill="none" stroke="#000000" stroke-width="1.5" stroke-linecap="butt"/><path d="M293.98798,232.48664c0,0 0.64939,-2.06246 1.73159,-2.15264c0.53368,-0.04448 1.73853,-0.25981 2.76872,0.17342c1.35302,0.56899 2.51066,1.39497 2.51066,1.39497" fill="none" stroke="#000000" stroke-width="1.5" stroke-linecap="round"/><path d="M275.73026,247.53102c0,0 1.26439,-2.98219 2.74386,-4.00437c1.04105,-0.71927 4.70529,-1.25387 4.70529,-1.25387c0,0 3.18191,0.23109 4.01929,1.20803c0.90941,1.06099 1.8232,4.63446 1.8232,4.63446" fill="none" stroke="#000000" stroke-width="1.5" stroke-linecap="round"/><path d="M189.99189,222.59095c0,0 0.68387,-1.75975 1.21318,-2.31425c0.49012,-0.51347 1.85412,-0.89912 1.85412,-0.89912h17.23532c0,0 0.72476,-0.21916 0.96804,-0.50668c0.2855,-0.33741 0.63864,-1.39213 0.63864,-1.39213" fill="none" stroke="#000000" stroke-width="1.5" stroke-linecap="round"/><text transform="translate(148.70998,268.90345) rotate(5.52575) scale(0.66313,0.66313)" font-size="40" xml:space="preserve" fill="#000000" fill-rule="nonzero" stroke="none" stroke-width="1" stroke-linecap="butt" stroke-linejoin="miter" stroke-miterlimit="10" stroke-dasharray="" stroke-dashoffset="0" font-family="Pixel" font-weight="normal" text-anchor="start" style="mix-blend-mode: normal"><tspan x="0" dy="0">Press Space</tspan></text><g fill="none" stroke="#000000" stroke-width="1.5" stroke-linecap="butt"><path d="M303.16364,150.45963c-1.45376,2.68439 -4.96385,3.59784 -7.83999,2.04023c-2.87613,-1.55763 -4.02919,-4.99644 -2.57542,-7.68084c1.45376,-2.68439 3.66025,-1.19072 6.53638,0.36689c2.87613,1.55763 5.3328,2.58933 3.87902,5.27371z"/><path d="M292.95628,144.98995c-0.31387,-0.34023 -0.57526,-0.7003 -0.76547,-1.08379c-1.01428,-2.04471 -0.26991,-4.64285 0.73764,-6.50328c1.88982,-3.48955 7.04856,-4.3543 11.52238,-1.93148c4.4738,2.42285 6.56854,7.21583 4.67872,10.70538c-0.88628,1.63651 -1.865,3.70551 -3.78137,4.11908c-0.69963,0.151 -1.50587,0.11096 -2.35686,-0.05575" data-paper-data="{&quot;index&quot;:null}"/><path d="M304.80091,141.64551c-0.79878,1.47493 -2.72169,1.97992 -4.29496,1.12788c-1.57327,-0.85204 -2.20111,-2.73841 -1.40234,-4.21333c0.79878,-1.47493 2.7217,-1.97991 4.29496,-1.12787c1.57327,0.85204 2.20111,2.73841 1.40234,4.21332z"/><path d="M295.02011,135.38573c1.46947,0.88575 2.03629,2.70278 1.26175,4.13298c-0.79878,1.47493 -2.7217,1.97992 -4.29496,1.12788c-0.06092,-0.03299 -0.12039,-0.06753 -0.17845,-0.10351"/><path d="M306.93336,149.10261c-0.06189,-0.02893 -0.12331,-0.05991 -0.18421,-0.09287c-1.57327,-0.85204 -2.20111,-2.7384 -1.40234,-4.21332c0.77454,-1.43017 2.60603,-1.9484 4.15081,-1.20172" data-paper-data="{&quot;index&quot;:null}"/></g><g fill="#736a67" stroke="none" stroke-width="0.5" stroke-linecap="butt"><path d="M20.33142,139.74493c3.26405,-3.81019 7.86572,-4.09256 12.20092,-5.69725c2.79645,-0.05051 5.24441,-1.25509 8.21213,-0.7362c0.89531,0.15654 2.50557,1.08963 3.24252,0.51694c4.17754,-2.87665 7.12214,-3.63717 11.58962,-0.71074c3.41046,2.98665 3.18416,7.99403 1.64367,11.79959c-2.19193,2.57837 -8.12309,6.28155 -11.49438,6.78939c-4.1705,0.09907 -8.30946,1.36265 -12.21678,2.83675c-1.51518,0.22392 -3.7329,0.78491 -5.08907,1.50096c-2.05476,1.08491 -3.85298,3.49692 -6.19049,3.83324c-3.79409,-1.36947 -7.46866,-5.46852 -6.71196,-9.74767c-0.04461,-1.61632 0.35852,-3.48971 1.17741,-5.12708c-0.03056,-0.08378 -0.03749,-0.17291 -0.02241,-0.25816l0.01061,-0.06c0.23007,-0.38676 0.4702,-0.77033 0.72204,-1.15432c0,0 0.11363,-0.17346 0.15841,-0.41415c0.75931,-1.23221 1.8158,-2.68335 2.76776,-3.3713zM19.93608,141.49239c0.07855,-0.0406 0.15809,-0.07944 0.23862,-0.11646l-0.01304,0.01649l0.00843,0.00666c-0.00962,0.00669 -0.01923,0.01339 -0.02886,0.02008l-0.00724,0.03585l-0.01228,-0.00843l-0.25724,0.37467l-0.37439,0.35037l0.0772,0.08249l-0.00047,0.00069c-0.66965,0.3876 -1.02302,0.92838 -1.57842,2.18646l-0.06753,0.33347c-0.98074,1.68859 -1.4353,3.81927 -1.40618,5.43144c-0.68024,3.84676 2.56606,7.23809 5.82748,8.67778c1.95144,-0.30543 3.85568,-2.79621 5.60912,-3.72293c1.41168,-0.74609 3.72584,-1.35172 5.30456,-1.58504c3.91863,-1.52431 8.18725,-2.77875 12.3856,-2.86577c1.55502,-0.22402 2.51646,-1.17053 3.83574,-1.89077c2.27206,-1.24041 5.15772,-2.48694 6.88741,-4.41969c1.2368,-3.33274 1.66517,-7.85647 -1.39132,-10.4846c-4.06231,-2.66102 -6.64273,-1.93799 -10.41311,0.73269c-1.3882,0.91036 -2.9909,-0.31899 -4.53772,-0.45101c-2.62493,-0.22404 -4.81963,0.76645 -7.29744,0.8321c-3.95177,1.5782 -7.99338,1.75729 -11.15816,4.86078c-0.09354,0.0299 -0.18422,0.07419 -0.26892,0.13344c-0.08855,0.06194 -0.164,0.13563 -0.22571,0.21749l-0.38512,0.48714c-0.24663,0.20981 -0.50009,0.47207 -0.75102,0.7646z"/><path d="M44.75464,151.34032l0.72113,0.60551c-1.27594,1.46822 -2.53297,3.17062 -4.11824,4.29351c-3.53803,2.47476 -8.05591,2.95571 -11.50848,5.23431c-4.31167,0.2368 -6.28162,6.28374 -10.90757,5.51471c-5.36268,-2.06833 2.06953,-6.05104 2.83196,-8.10551c0,0 0.18194,-0.46572 0.64766,-0.28379c0.46572,0.18194 0.28379,0.64766 0.28379,0.64766c-0.58169,1.43696 -6.99435,5.38998 -3.49309,6.77887c4.15084,0.8072 6.17505,-5.64981 10.32613,-5.5023c1.16166,-0.87701 2.70042,-0.99303 4.04481,-1.4364c2.47341,-0.81571 5.07373,-2.17858 7.20162,-3.66698c1.42382,-0.98044 2.57411,-2.52854 3.71054,-3.8667c0.05864,-0.16443 0.19982,-0.26318 0.19982,-0.26318l0.01511,0.01269c0.00371,-0.00428 0.00743,-0.00855 0.01114,-0.01283z"/><path d="M32.42156,160.04473c-0.08707,0.49236 -0.57943,0.40529 -0.57943,0.40529l-0.23772,-0.06809c-1.33622,0.19551 -2.6976,0.33516 -3.94476,0.89111c-3.40486,1.2857 -6.77446,2.62833 -9.78243,4.76538c0,0 -0.40972,0.28659 -0.6963,-0.12313c-0.28659,-0.40972 0.12313,-0.6963 0.12313,-0.6963c3.11237,-2.14967 6.49236,-3.51657 9.97617,-4.87116c1.33722,-0.57724 2.75423,-0.74242 4.17799,-0.95515l0.55805,0.07263c0,0 0.49236,0.08707 0.4053,0.57943z"/><path d="M26.17833,156.22227c0.08224,-0.05752 0.15952,-0.08699 0.23051,-0.09736c1.78123,-2.45505 -0.84064,-5.54245 -2.84059,-6.89371c-3.02507,-0.47573 -5.53365,0.8416 -5.63712,3.96389c-0.03139,0.94711 -0.30701,1.93073 0.52917,2.61182c0,0 0.3774,0.32798 0.04942,0.70538c-0.32797,0.3774 -0.70537,0.04942 -0.70537,0.04942c-1.72936,-1.56787 -1.21376,-5.55093 0.37131,-7.09971c1.20393,-1.17637 4.19317,-1.45723 5.76116,-1.1604c2.74108,1.75651 5.64051,5.65456 2.98739,8.77542l-0.869,-0.15845c0,0 -0.28659,-0.40972 0.12313,-0.6963z"/><path d="M25.91613,152.65264c0.13643,-0.01723 0.30522,0.01715 0.44479,0.21669c0.28659,0.40972 -0.12313,0.6963 -0.12313,0.6963l-0.73162,0.04956c-0.51802,-0.46359 -1.17377,-0.82656 -1.76551,-1.21444c-0.50258,-0.32944 -1.64498,-1.50836 -1.5537,-0.9144c0.08743,0.56888 0.22478,0.93267 0.34082,1.34244l0.19762,-0.04119l0.20168,0.96768c0.04482,0.193 -0.02824,0.4025 -0.20054,0.52302c-0.16356,0.11441 -0.37177,0.11731 -0.53441,0.02468l-0.53163,-0.28821c-0.36477,-0.14274 -0.72547,-0.3025 -1.06193,-0.50302c-0.11075,-0.06601 -0.34053,-0.28232 -0.41271,-0.35154c0.00113,0.00111 0.00231,0.00226 0.00354,0.00346c0.882,0.86234 1.16597,2.77572 1.60451,3.91982c0,0 0.17866,0.46699 -0.28834,0.64565c-0.46699,0.17866 -0.64564,-0.28833 -0.64564,-0.28833c-0.29598,-0.77506 -1.88801,-3.93271 -1.59917,-4.64814c0.44298,-1.09723 1.71827,-0.26897 2.49122,0.1525c-0.58941,-0.96742 -0.90536,-2.43066 0.73363,-2.34562c0.94908,0.04924 2.54119,1.30806 3.43049,2.05309z"/><path d="M26.2056,161.86913l0.46218,0.2869c-0.30093,0.21049 -0.61052,0.46103 -0.92777,0.73284c-0.15057,0.15493 -0.31794,0.29428 -0.46791,0.40926c-1.64043,1.45638 -3.46425,3.22339 -5.34155,2.87513c-0.03951,0.0067 -0.07927,0.01309 -0.11929,0.01916l-0.071,0.21648l-0.62986,-0.20658c-0.03264,0.01429 -0.06379,0.02828 -0.0932,0.04198l-0.10571,-0.03398l0.00106,0.04746l-0.5072,0.01135c-0.16399,0.00606 -0.3276,-0.06864 -0.42865,-0.21312c-0.15828,-0.22628 -0.10315,-0.53803 0.12313,-0.6963c0.02561,-0.01791 0.05231,-0.03309 0.07976,-0.0456l0.77575,-0.37017l0.03647,0.07642c1.45838,-1.04347 3.06945,-1.82824 4.59124,-2.80145c0.76849,-0.79624 1.60884,-1.32487 2.24602,-0.82943c0.03149,0.02448 0.06068,0.04915 0.08768,0.07399c0.05893,-0.04284 0.11821,-0.08515 0.17788,-0.12688z"/></g><g fill="none" stroke="#736a67" stroke-width="2" stroke-linecap="round"><path d="M70.66666,17.91667l42,20"/><path d="M71.33333,116.91667l42,-20" data-paper-data="{&quot;index&quot;:null}"/><path d="M53.07632,66.58312l46.51403,0.6671"/></g><g data-paper-data="{&quot;index&quot;:null}" fill="none" stroke="#736a67" stroke-width="2" stroke-linecap="round"><path d="M430.74299,14.91667l-42,20"/><path d="M388.07632,93.91667l42,20" data-paper-data="{&quot;index&quot;:null}"/><path d="M448.33334,63.58312l-46.51403,0.6671"/></g></g></g></svg>