<svg version="1.1" xmlns="http://www.w3.org/2000/svg" xmlns:xlink="http://www.w3.org/1999/xlink" width="561.28247" height="462.82882" viewBox="0,0,561.28247,462.82882"><defs><radialGradient cx="240.00004" cy="175.49999" r="280.64123" gradientUnits="userSpaceOnUse" id="color-1"><stop offset="0" stop-color="#c9beba"/><stop offset="1" stop-color="#645c57"/></radialGradient><radialGradient cx="236.50004" cy="180" r="231.41441" gradientUnits="userSpaceOnUse" id="color-2"><stop offset="0" stop-color="#ffffff"/><stop offset="1" stop-color="#ffffff" stop-opacity="0"/></radialGradient><linearGradient x1="252.62502" y1="85.0557" x2="252.62502" y2="93.27309" gradientUnits="userSpaceOnUse" id="color-3"><stop offset="0" stop-color="#beb3b9"/><stop offset="1" stop-color="#e5d8df"/></linearGradient></defs><g transform="translate(40.64121,51.41441)"><g data-paper-data="{&quot;isPaintingLayer&quot;:true}" fill-rule="nonzero" stroke-linejoin="miter" stroke-miterlimit="10" stroke-dasharray="" stroke-dashoffset="0" style="mix-blend-mode: normal"><path d="M-40.64121,360.32962v-369.65923h561.28247v369.65923z" fill="url(#color-1)" stroke="none" stroke-width="0" stroke-linecap="butt"/><path d="M5.0856,180c0,-127.80665 103.60776,-231.41441 231.41441,-231.41441c127.80665,0 231.41441,103.60776 231.41441,231.41441c0,127.80665 -103.60776,231.41441 -231.41441,231.41441c-127.80665,0 -231.41441,-103.60776 -231.41441,-231.41441z" fill="url(#color-2)" stroke="none" stroke-width="0" stroke-linecap="butt"/><path d="M149.14127,89.66441c0,0 -2.875,3.27009 -2.875,2.125c0,-0.26917 -0.22101,-1.06291 0.53123,-2.57378c0.93207,-1.87206 2.95692,-4.57748 3.99296,-5.58027c1.8144,-1.75617 4.72581,-3.34595 4.72581,-3.34595l208.375,1.5l0.25,7.875z" fill="#6c6763" stroke="none" stroke-width="0" stroke-linecap="butt"/><path d="M126.77165,294.62691c0,0 -2.62573,-5.78499 -1.63706,-12.59622c0.61214,-4.21724 5.0996,-9.99068 6.53178,-17.2749c1.76566,-8.98042 3.53789,-19.89947 5.10463,-33.38739c1.61898,-13.93759 3.04141,-30.59396 5.45294,-49.15985c0.72283,-5.56496 -1.57521,-43.14215 -0.82213,-48.2655c1.54465,-10.50851 7.18011,-21.26445 9.5975,-29.59329c3.0468,-10.4974 2.14404,-17.34977 2.14404,-17.34977c0,0 0.686,3.62608 1.51635,3.62815c1.47434,0.00367 9.11417,0.90037 12.85966,-0.17794c1.68534,-0.4852 -1.30578,-3.26442 0.74844,-3.41621c0.38879,-0.02872 0.78401,-0.05579 1.18553,-0.08125c0.67207,-0.04263 2.06853,-0.11478 2.06853,-0.11478l-0.10795,4.09528c0,0 26.38163,-0.38961 34.92483,-0.2301c0.78419,0.01464 0.39173,-3.78885 1.18598,-3.77427c2.44035,0.04481 4.92684,0.08871 7.45148,0.12761c0.72394,0.01116 0.54192,3.20372 1.27194,3.21395c2.97498,0.04172 9.42811,0.16372 12.74164,-0.7048c1.06718,-0.27972 0.01955,-2.37326 1.0122,-2.37064c0.73877,0.00195 -0.33881,2.44835 0.40344,2.45032c0.38334,0.00101 1.71716,0.35869 2.3029,-0.13294c0.82548,-0.69286 0.93213,-2.30559 1.47516,-2.30415c3.31041,0.00877 6.64894,0.01765 9.99993,0.02658c0.42389,0.00113 0.63504,1.36344 1.26971,1.99579c0.52864,0.52671 1.48719,0.34282 1.84079,0.34377c0.81456,0.00217 0.85187,-2.32897 1.66724,-2.32679c0.30696,0.00082 0.06851,2.81982 0.37555,2.82065c3.52566,0.00945 9.24305,0.66545 12.76919,-0.15667c0.98534,-0.22973 -0.21188,-2.83777 0.77156,-2.85425c2.40379,-0.0403 4.70974,-0.0713 7.09349,-0.09424c0.8343,-0.00803 0.38058,1.58003 0.62908,2.21471c0.28899,0.73813 1.20725,0.53933 1.20725,0.53933c0,0 27.82652,-0.34148 34.25632,-0.32494c0.9764,0.00251 -0.52816,-2.53924 0.18471,-2.53419c0.53591,0.00379 0.7714,3.00791 1.2786,3.01232c0.40758,0.00355 2.14098,0.49131 2.58834,-0.10874c0.63135,-0.84685 -0.02362,-2.86862 0.49293,-2.8624c1.28386,0.01547 -0.37235,3.67358 0.83345,3.98058c4.12513,1.05025 10.60834,-0.14351 12.98633,-0.06156c0.46821,0.01614 -0.44193,-3.60415 0.00157,-3.58827c0.48774,0.01746 0.9634,0.03467 1.43324,0.05143c3.09424,0.11038 5.93657,0.20133 10.32072,0.21599c1.08704,0.00364 0.74938,2.3812 2.18668,3.20876c1.14464,0.65905 3.66146,-0.08218 4.36956,-0.07981c1.13337,0.00379 9.96055,0.09817 10.89932,0.10131c1.49166,0.00499 3.14767,0.09839 3.83644,-0.56512c0.53519,-0.51556 -3.40445,1.86401 -4.48214,1.12031c-1.08531,-0.74896 0.68937,-4.61939 0.68937,-4.61939c0,0 7.84031,-4.60095 9.7,-4.61981c1.18932,0.11294 1.93743,2.1073 2.29726,2.60393c0.60697,0.83774 0.74315,1.74614 1.24163,2.87466c0.24689,0.55894 0.23543,0.95708 0.42874,1.38997c0.19698,0.44111 0.597,0.91832 0.66104,1.63853c0.66748,1.63372 0.33174,4.26409 0.61428,8.06978c0.16614,2.23783 0.34174,4.75238 0.51453,7.47834c0.86078,13.57931 1.65198,32.40459 0.85738,48.4005c-0.30864,6.21302 -1.78713,10.79422 -3.17121,15.5401c-1.19515,4.09807 -2.3199,8.31894 -2.56024,13.81928c-0.48561,11.11387 1.59481,16.49738 0.80519,26.79099c-0.55422,7.22483 -7.13261,16.49777 -7.55954,22.51672c-0.9746,13.73985 -0.93084,22.59034 -0.93084,25.24656c0,1.43323 0,22.80141 0,22.80141c0,0 -1.53969,12.21651 -4.6147,23.86999c-1.61176,6.10821 -1.93212,12.32112 -6.36517,15.98011c-4.11659,3.39779 -12.48229,-2.05685 -23.53648,-3.84534c-8.45621,-1.36814 -18.90564,1.04109 -27.71852,1.44058c-0.22795,0.01033 -6.36801,2.47014 -14.61451,1.298c-7.58627,-1.0783 -16.27151,-5.04159 -27.06757,-6.68609c-11.06055,-1.68479 -24.25293,-1.05997 -33.66184,-2.92169c-11.81355,-2.33752 -19.11521,-5.28786 -21.96422,-5.73642c-11.94815,-1.88121 -29.02133,-1.36284 -38.5003,-5.57831c-4.31903,-1.92075 -3.86727,-0.29177 -5.01838,-2.70356c-1.07872,-2.2601 -0.53836,-4.79848 -1.17683,-7.45053c-0.6209,-2.57904 -2.93613,-3.69492 -3.32402,-3.66894c-2.05092,0.13743 -4.84111,0.75392 -6.21795,3.75271c-1.32613,2.88832 -0.74947,6.51941 -1.83192,8.36307c-1.3894,2.36647 -4.05016,0.53671 -5.08832,0.59556c-4.51081,0.25572 -9.10852,-3.29655 -9.10852,-3.29655z" fill="#6c6763" stroke="none" stroke-width="0" stroke-linecap="butt"/><path d="M148.25001,93.27309c0,0 0.07068,-3.13652 0.87193,-4.38289c0.67812,-1.05486 3.62807,-2.61711 3.62807,-2.61711l200.5,0.30435c0,0 2.10045,2.41124 2.74401,3.56031c0.60393,1.07832 1.00599,3.13534 1.00599,3.13534z" fill="url(#color-3)" stroke="none" stroke-width="0" stroke-linecap="butt"/><path d="M120.99892,285.50001c0,0 -2.59364,-5.39138 -1.61705,-11.73917c0.60466,-3.9303 5.03726,-9.31091 6.45193,-16.09952c1.74408,-8.36939 3.49464,-18.54551 5.04223,-31.11572c1.59919,-12.98928 3.00423,-28.51235 5.38628,-45.81502c0.71399,-5.18633 -1.55595,-40.20677 -0.81208,-44.98152c1.52577,-9.79351 7.09234,-19.81762 9.48018,-27.57976c3.00956,-9.78316 2.73519,-16.16929 2.73519,-16.16929l211.33333,0.66666c0,0 0.407,3.92958 0.8975,10.16311c0.16411,2.08557 0.33756,4.42903 0.50824,6.96952c0.85026,12.65537 1.63179,30.19979 0.84689,45.10734c-0.30487,5.79029 -1.76529,10.05978 -3.13245,14.48276c-1.18054,3.81924 -2.29154,7.75292 -2.52894,12.87902c-0.47968,10.35769 1.57531,15.37491 0.79534,24.96813c-0.54744,6.73325 -7.04541,15.37526 -7.46713,20.98468c-0.96268,12.80499 -0.91946,21.05329 -0.91946,23.52879c0,1.33572 0,21.25 0,21.25c0,0 -1.52087,11.3853 -4.55828,22.24588c-1.59206,5.6926 -1.9085,11.48279 -6.28736,14.89282c-4.06627,3.1666 -12.3297,-1.9169 -23.24876,-3.5837c-8.35284,-1.27506 -18.67453,0.97026 -27.37968,1.34256c-0.22517,0.00963 -6.29016,2.30207 -14.43586,1.20968c-7.49353,-1.00493 -16.0726,-4.69856 -26.73668,-6.23117c-10.92535,-1.57016 -23.95646,-0.98785 -33.25034,-2.7229c-11.66914,-2.17848 -18.88154,-4.92807 -21.69573,-5.34612c-11.80209,-1.75321 -28.66657,-1.27011 -38.02967,-5.19876c-4.26624,-1.79007 -3.81999,-0.27192 -4.95703,-2.51961c-1.06553,-2.10633 -0.53177,-4.47199 -1.16244,-6.9436c-0.61331,-2.40356 -2.90024,-3.44352 -3.28339,-3.4193c-2.02585,0.12808 -4.78194,0.70262 -6.14194,3.49737c-1.30991,2.6918 -0.74031,6.07583 -1.80953,7.79405c-1.37242,2.20546 -4.00065,0.50019 -5.02611,0.55504c-4.45567,0.23832 -8.99718,-3.07225 -8.99718,-3.07225z" fill="#e5d8df" stroke="none" stroke-width="0" stroke-linecap="butt"/><path d="M281.04249,181.33145c-0.36763,3.70015 -1.84438,8.34882 -4.88414,11.70919c-2.93555,3.24517 -7.38418,5.23351 -10.6315,7.07356c-1.61258,0.91375 0.85283,-2.07911 1.46735,-6.23286c0.41587,-2.81106 -0.39982,-6.15381 -1.49798,-9.17723c-1.43094,-3.93959 -4.59077,-7.31057 -8.02999,-9.47077c-2.88156,-1.80992 -6.05717,-2.72094 -7.63042,-2.87724c-2.08093,-0.20674 -8.10114,-0.37475 -12.48269,2.11637c-3.4353,1.95313 -6.1784,5.68101 -7.79405,8.56214c-3.72772,6.64751 0.94406,14.85523 -1.42018,12.62561c-2.41195,-2.27459 -6.71721,-5.34695 -8.80891,-9.3802c-2.41426,-4.65521 -2.42548,-10.37215 -2.05849,-14.06586c0.70304,-7.07603 4.47986,-15.86196 11.94589,-21.30322c6.3819,-4.65114 15.94622,-6.59292 23.20446,-5.87178c7.20988,0.71634 16.88327,4.31746 22.09933,10.69669c6.17804,7.55576 7.22839,18.47928 6.52135,25.59562z" fill="none" stroke="#000000" stroke-width="2" stroke-linecap="butt"/><path d="M151.01721,86.50002l2.1144,-0.00384" fill="none" stroke="#000000" stroke-width="2" stroke-linecap="round"/><path d="M357.27355,90.95301c1.65078,3.6052 3.56444,8.78463 3.89176,13.959c0.45845,7.24722 0.74955,16.52434 0.34127,26.64335c-0.27265,6.75754 0.62436,14.77048 0.00071,22.50008c-0.92626,11.48008 -5.22524,23.785 -6.27809,36.18028c-0.41059,4.83385 1.77668,10.33241 1.30133,15.13637c-1.02041,10.31271 -6.62771,14.75426 -7.57726,24.79533c-0.68557,7.24981 0.17123,16.30674 -0.1845,23.09149c-0.95412,18.19749 -2.48896,32.26256 -4.40306,43.52216c-1.83027,10.76652 -9.90234,14.02125 -10.85322,14.10865c-5.60244,0.51498 -13.85695,-4.3711 -21.71933,-4.9636c-11.46951,-0.86431 -21.92257,3.89848 -30.17863,3.29787c-13.60066,-0.98942 -34.83432,-6.72469 -47.37973,-7.70578c-9.02607,-0.70587 -20.80415,-1.33241 -24.21194,-1.76861c-0.93632,-0.11985 -9.26998,-3.4494 -21.94614,-5.29884c-10.31885,-1.50551 -24.40221,-1.36502 -32.50759,-3.11974c-7.15734,-1.54946 -9.4871,-5.25545 -9.4871,-5.25545c0,0 1.24648,-4.34433 0.57625,-6.1316c-0.24076,-0.64202 -0.93453,-1.41775 -1.70845,-2.13714c-1.29373,-1.20258 -2.81146,-1.4144 -2.81146,-1.4144c0,0 -1.34256,-0.11206 -2.67851,0.87597c-1.04029,0.76937 -2.07656,1.70048 -2.47177,2.57874c-1.04748,2.32773 -0.76523,8.85755 -0.76523,8.85755c0,0 -5.43147,1.19993 -7.78318,0.75897c-2.82074,-0.52889 -7.99151,-3.71673 -7.99151,-3.71673c0,0 -0.64169,-7.98885 1.17692,-16.73397c1.52631,-7.33955 5.36854,-14.43457 7.08542,-25.37618c3.1343,-19.97467 5.35468,-44.00673 7.78279,-64.99506c1.77748,-15.36432 -2.88354,-27.34393 -0.9448,-37.24206c2.42608,-12.38633 3.48367,-19.91638 9.39327,-33.96257c3.02043,-7.17909 1.14347,-11.29083 1.83945,-14.68656c0.77755,-3.79371 3.93934,-6.4456 3.93934,-6.4456" fill="none" stroke="#000000" stroke-width="2" stroke-linecap="round"/><path d="M273.22328,94.85199c0,0 1.97477,4.43084 2.91625,9.04062c2.25782,11.05505 3.96191,31.54739 5.32935,45.42699c2.36028,23.95684 6.24271,80.47997 6.24271,80.47997c0,0 -2.39636,7.33133 -14.83438,11.81209c-9.97973,3.59517 -29.46786,4.6528 -36.49693,3.89427c-6.88721,-0.74322 -19.49779,-2.55596 -27.41447,-8.41844c-8.8259,-6.5358 -12.61601,-17.14711 -12.61601,-17.14711c0,0 19.95185,-61.48805 28.70803,-84.87783c3.31889,-8.86552 6.12091,-19.91154 10.76802,-28.42124c4.66698,-8.54611 6.93253,-11.47477 6.93253,-11.47477" fill="none" stroke="#000000" stroke-width="2" stroke-linecap="round"/><path d="M197.00709,218.96855c0,0 7.67112,-4.37076 11.89913,-4.58758c4.31485,-0.22128 19.65027,-0.01337 19.65027,-0.01337" fill="none" stroke="#000000" stroke-width="2" stroke-linecap="round"/><path d="M267.65981,213.97795c0,0 10.96928,3.27901 14.26702,5.11042c3.03395,1.68492 5.45135,6.7206 5.45135,6.7206" fill="none" stroke="#000000" stroke-width="2" stroke-linecap="round"/><path d="M215.0306,206.14223c0,0 -7.28554,-0.72164 -13.7066,-0.17787c-5.09841,0.43177 -8.68022,2.14709 -14.55602,2.19547c-3.13986,0.02586 -4.94299,-1.91047 -7.85239,-1.86216c-9.16517,0.15219 -13.33283,0.84998 -17.89952,0.58903c-5.85897,-0.3348 -14.99975,-4.68814 -14.99975,-4.68814" fill="none" stroke="#000000" stroke-width="2" stroke-linecap="round"/><path d="M270.9838,209.09527c0,0 9.52255,3.35087 14.23387,4.08374c5.1147,0.79561 14.68641,1.83177 14.68641,1.83177l7.23007,6.57279c0,0 20.06221,1.30643 25.126,0.97618c5.014,-0.327 10.36707,6.91117 10.36707,6.91117" fill="none" stroke="#000000" stroke-width="2" stroke-linecap="round"/><path d="M266.69273,191.34874c0,10.6179 -5.99065,17.91086 -17.02906,17.91086c-11.03841,0 -21.63002,-7.95024 -21.63002,-18.56813c0,-10.6179 7.63385,-18.56813 18.67226,-18.56813c11.03841,0 19.98682,8.60752 19.98682,19.22541z" fill="none" stroke="#000000" stroke-width="2" stroke-linecap="butt"/><path d="M238.28891,232.00615l-6.19721,-9.57749l24.03763,4.88265" fill="none" stroke="#000000" stroke-width="2" stroke-linecap="round"/><path d="M231.34055,221.8653c0,0 0.66454,-5.31212 1.48609,-8.00682c0.73335,-2.40542 3.20874,-7.3923 3.20874,-7.3923" fill="none" stroke="#000000" stroke-width="2" stroke-linecap="round"/><path d="M224.39213,217.17045c0,0 3.52357,-5.13811 5.42259,-7.17039c1.62678,-1.74094 5.46947,-3.90946 5.46947,-3.90946" fill="none" stroke="#000000" stroke-width="2" stroke-linecap="round"/><path d="M266.08234,235.19866l-9.57749,-8.26293c0,0 0.37558,-6.34223 0.37558,-9.38971c0,-2.89109 -0.37558,-8.45073 -0.37558,-8.45073c0,0 1.61123,0.7824 2.14786,2.00658c1.06937,2.4395 3.86155,11.70238 3.86155,11.70238" fill="none" stroke="#000000" stroke-width="2" stroke-linecap="round"/><path d="M244.11052,196.13751c0,0 3.0854,-0.34414 4.39579,-0.05649c1.25362,0.27518 4.24274,1.74663 4.24274,1.74663" fill="none" stroke="#000000" stroke-width="2" stroke-linecap="round"/><path d="M240.16685,187.40507c0,2.07432 -1.63953,3.75588 -3.66198,3.75588c-2.02246,0 -3.66198,-1.68157 -3.66198,-3.75588c0,-2.07432 1.63953,-3.75588 3.66198,-3.75588c2.02246,0 3.66198,1.68157 3.66198,3.75588z" fill="#000000" stroke="none" stroke-width="2" stroke-linecap="butt"/><path d="M264.85767,192.27969c0,2.07432 -1.63952,3.75589 -3.66198,3.75589c-2.02246,0 -3.66199,-1.68157 -3.66199,-3.75589c0,-2.07432 1.63953,-3.75589 3.66199,-3.75589c2.02246,0 3.66198,1.68157 3.66198,3.75589z" fill="#000000" stroke="none" stroke-width="2" stroke-linecap="butt"/><path d="M262.05683,157.93337c0.21967,5.98037 -4.96972,11.02557 -11.59085,11.26878c-6.62113,0.24321 -12.16668,-4.40768 -12.38635,-10.38804c-0.21967,-5.98037 4.96972,-11.02557 11.59085,-11.26878c6.62113,-0.24321 12.16668,4.40768 12.38635,10.38804z" fill="none" stroke="#000000" stroke-width="2" stroke-linecap="butt"/><path d="M220.50203,161.31923c5.60173,1.20783 9.76683,5.75876 9.76683,11.18835c0,5.88102 -4.88649,10.73119 -11.19229,11.41886" fill="none" stroke="#000000" stroke-width="2" stroke-linecap="butt"/><path d="M279.8934,186.71989c-6.3058,-0.68767 -11.19229,-5.53784 -11.19229,-11.41886c0,-5.42959 4.16509,-9.98051 9.76683,-11.18835" data-paper-data="{&quot;index&quot;:null}" fill="none" stroke="#000000" stroke-width="2" stroke-linecap="butt"/><path d="M294.32131,233.81997c0,0 0.64939,-2.06246 1.73159,-2.15264c0.53368,-0.04448 1.73853,-0.25981 2.76872,0.17342c1.35302,0.56899 2.51066,1.39497 2.51066,1.39497" fill="none" stroke="#000000" stroke-width="1.5" stroke-linecap="round"/><path d="M278.0636,248.19768c0,0 1.26439,-2.98219 2.74386,-4.00437c1.04105,-0.71927 4.70529,-1.25387 4.70529,-1.25387c0,0 3.18191,0.23109 4.01929,1.20803c0.90941,1.06099 1.8232,4.63446 1.8232,4.63446" fill="none" stroke="#000000" stroke-width="1.5" stroke-linecap="round"/><path d="M187.65855,223.59095c0,0 0.68387,-1.75975 1.21318,-2.31425c0.49012,-0.51347 1.85412,-0.89912 1.85412,-0.89912h17.23532c0,0 0.72476,-0.21916 0.96804,-0.50668c0.2855,-0.33741 0.63864,-1.39213 0.63864,-1.39213" fill="none" stroke="#000000" stroke-width="1.5" stroke-linecap="round"/><text transform="translate(148.70999,268.90345) rotate(5.52575) scale(0.66313,0.66313)" font-size="40" xml:space="preserve" fill="#000000" fill-rule="nonzero" stroke="none" stroke-width="1" stroke-linecap="butt" stroke-linejoin="miter" stroke-miterlimit="10" stroke-dasharray="" stroke-dashoffset="0" font-family="Pixel" font-weight="normal" text-anchor="start" style="mix-blend-mode: normal"><tspan x="0" dy="0">Press Space</tspan></text><g fill="none" stroke="#000000" stroke-width="1.5" stroke-linecap="butt"><path d="M307.81888,151.00552c-0.32643,3.03526 -3.22739,5.21232 -6.47947,4.86256c-3.25207,-0.34977 -5.62377,-3.09386 -5.29733,-6.12914c0.32643,-3.03526 2.93467,-2.49056 6.18674,-2.14081c3.25207,0.34977 5.9165,0.37211 5.59005,3.40738z"/><path d="M296.29943,149.81815c-0.4195,-0.19568 -0.79797,-0.42964 -1.11947,-0.71228c-1.7143,-1.50691 -2.01148,-4.19319 -1.78522,-6.29681c0.42436,-3.94567 4.86914,-6.70325 9.92772,-6.15925c5.05857,0.54404 8.81536,4.18369 8.39101,8.12937c-0.19901,1.85042 -0.31944,4.13606 -1.93556,5.24587c-0.59001,0.40518 -1.35115,0.67407 -2.20174,0.84274" data-paper-data="{&quot;index&quot;:null}"/><path d="M305.98913,142.22934c-0.17937,1.66772 -1.76684,2.8646 -3.54576,2.67327c-1.77892,-0.19133 -3.07559,-1.69838 -2.89623,-3.36609c0.17937,-1.66772 1.76685,-2.8646 3.54576,-2.67326c1.77892,0.19133 3.07559,1.69838 2.89623,3.36609z"/><path d="M294.56453,140.1491c1.69567,0.26191 2.90958,1.72796 2.73566,3.3451c-0.17937,1.66772 -1.76685,2.86461 -3.54576,2.67327c-0.06888,-0.00741 -0.13701,-0.0168 -0.20439,-0.02805"/><path d="M310.79175,148.31955c-0.06823,-0.00328 -0.13682,-0.00864 -0.20568,-0.01603c-1.77892,-0.19133 -3.07559,-1.69837 -2.89623,-3.36609c0.17393,-1.61711 1.6718,-2.79155 3.38437,-2.68689" data-paper-data="{&quot;index&quot;:null}"/></g><g fill="none" stroke="#000000" stroke-width="1.5" stroke-linecap="butt"><path d="M200.02311,171.54737c0.18559,3.04712 -2.31058,5.6785 -5.57537,5.87736c-3.26478,0.19882 -6.06185,-2.11015 -6.24744,-5.15727c-0.18559,-3.04712 2.47701,-2.94613 5.74177,-3.14497c3.26478,-0.19882 5.89544,-0.62223 6.08102,2.42489z"/><path d="M188.46726,172.30247c-0.4463,-0.1228 -0.85857,-0.29019 -1.22279,-0.5151c-1.9421,-1.19911 -2.68418,-3.7979 -2.81279,-5.90974c-0.24125,-3.96108 3.67997,-7.42294 8.75831,-7.73227c5.07833,-0.3093 9.39073,2.65108 9.63197,6.61216c0.11314,1.85765 0.37652,4.13124 -1.03132,5.49562c-0.51396,0.49812 -1.21943,0.89048 -2.02987,1.19897" data-paper-data="{&quot;index&quot;:null}"/><path d="M197.07656,163.27619c0.10196,1.67423 -1.26308,3.11966 -3.04894,3.22842c-1.78586,0.10876 -3.31624,-1.1603 -3.41821,-2.83453c-0.10196,-1.67423 1.26308,-3.11967 3.04895,-3.22842c1.78586,-0.10876 3.31624,1.16031 3.4182,2.83453z"/><path d="M185.14031,163.05953c1.71559,-0.02525 3.1575,1.21723 3.2564,2.84068c0.10196,1.67423 -1.26309,3.11966 -3.04895,3.22842c-0.06915,0.00421 -0.13788,0.00635 -0.20618,0.00651"/><path d="M202.50509,168.40216c-0.06782,0.00817 -0.13634,0.01437 -0.20546,0.01859c-1.78586,0.10876 -3.31624,-1.1603 -3.41821,-2.83453c-0.09887,-1.62343 1.18159,-3.03175 2.88756,-3.21487" data-paper-data="{&quot;index&quot;:null}"/></g><g data-paper-data="{&quot;index&quot;:null}" fill="#736a67" stroke="none" stroke-width="0.5" stroke-linecap="butt"><path d="M80.26284,214.02637c0.00716,0.25549 0.09622,0.45282 0.09622,0.45282c0.19749,0.43686 0.38294,0.87138 0.55752,1.30756l0.00122,0.06361c0.00172,0.09036 -0.01987,0.18116 -0.06497,0.26261c0.57908,1.82146 0.69112,3.81894 0.38305,5.47868c0.08664,4.53596 -4.36771,8.16774 -8.50275,8.96499c-2.35625,-0.72584 -3.81977,-3.50501 -5.76304,-4.95706c-1.28259,-0.95838 -3.47886,-1.8965 -5.00522,-2.37311c-3.79079,-2.1538 -7.85463,-4.12804 -12.13978,-4.90639c-3.39463,-1.07035 -8.91128,-5.85124 -10.75388,-8.8658c-0.97179,-4.1746 -0.39332,-9.37562 3.60827,-11.90294c5.08197,-2.29384 7.99557,-1.03206 11.83766,2.61207c0.66719,0.71013 2.47921,0.00885 3.42797,-0.00744c3.14487,-0.054 5.47426,1.58524 8.35017,2.09072c4.21092,2.35787 8.91104,3.39516 11.65964,7.85399c0.87026,0.86385 1.72459,2.53177 2.30792,3.9257zM77.42874,211.05667l-0.31822,-0.56485c-0.05036,-0.09443 -0.11623,-0.18266 -0.19752,-0.2609c-0.07774,-0.07484 -0.16409,-0.13522 -0.25572,-0.18122c-2.7608,-3.71388 -6.90005,-4.55386 -10.71981,-6.82223c-2.54483,-0.46944 -4.64773,-1.84681 -7.39126,-2.04133c-1.61671,-0.11463 -3.46897,0.89341 -4.75308,-0.27056c-3.45556,-3.36569 -5.99963,-4.52975 -10.62071,-2.44396c-3.57839,2.21495 -3.87004,6.94992 -3.13482,10.58765c1.47055,2.27378 4.24456,4.02723 6.38672,5.67489c1.24385,0.95672 2.08196,2.08878 3.64941,2.57193c4.31584,0.77043 8.51487,2.75628 12.30919,4.9637c1.59038,0.49659 3.87888,1.4964 5.21384,2.49475c1.65815,1.24006 3.21824,4.11764 5.18133,4.74903c3.59707,-0.95603 7.49497,-3.92734 7.41709,-8.00495c0.29142,-1.65798 0.16805,-3.92915 -0.56966,-5.82967l-0.01558,-0.35487c-0.36884,-1.38756 -0.6456,-2.00258 -1.2734,-2.51091l-0.00037,-0.0008l0.093,-0.07256l-0.32933,-0.42205l-0.20455,-0.42812l-0.01403,0.0067l-0.00165,-0.03814c-0.00884,-0.00847 -0.01767,-0.01692 -0.02651,-0.02538l0.00978,-0.00551l-0.01078,-0.01913c0.07706,0.05123 0.15279,0.1042 0.22722,0.1588c-0.21136,-0.34238 -0.43024,-0.65394 -0.65059,-0.91033z"/><path d="M50.9291,218.05316c0.00314,0.00501 0.00628,0.01002 0.00941,0.01503l0.01764,-0.01063c0,0 0.12958,0.12474 0.16341,0.30383c0.95509,1.56436 1.89044,3.34748 3.19993,4.58949c1.95327,1.88005 4.41412,3.70723 6.83281,4.94953c1.31464,0.67523 2.88282,1.04438 3.9387,2.13722c4.30511,0.52089 5.34589,7.50848 9.7577,7.34896c3.83618,-0.86476 -2.13656,-5.98137 -2.5035,-7.55768c0,0 -0.11213,-0.50982 0.39769,-0.62195c0.50982,-0.11213 0.62195,0.39768 0.62195,0.39768c0.45323,2.24248 7.47268,7.55503 1.60657,8.81873c-4.89563,0.04313 -5.94692,-6.51275 -10.35535,-7.45603c-3.19135,-2.90978 -7.77287,-4.13831 -11.02056,-7.26427c-1.45289,-1.41511 -2.47331,-3.37467 -3.5512,-5.09578l0.8419,-0.50756z"/><path d="M62.70653,228.54467l0.58732,0.01557c1.43389,0.45023 2.86854,0.85033 4.15409,1.66247c3.37339,1.96189 6.63771,3.91964 9.49909,6.64131c0,0 0.3761,0.362 0.0141,0.73809c-0.362,0.37609 -0.73809,0.01409 -0.73809,0.01409c-2.75577,-2.69172 -6.01331,-4.62275 -9.31644,-6.50079c-1.19611,-0.77558 -2.57752,-1.14034 -3.92392,-1.55861l-0.25621,0.03169c0,0 -0.52192,0.00997 -0.53189,-0.51194c-0.00997,-0.52192 0.51195,-0.53188 0.51195,-0.53188z"/><path d="M69.26733,226.8846l-0.92193,0.02252c-2.23029,-3.64883 1.39202,-7.19898 4.5038,-8.56613c1.66526,-0.05192 4.70266,0.72241 5.7536,2.13084c1.38365,1.85432 1.26962,6.04582 -0.76814,7.38245c0,0 -0.4424,0.27706 -0.71946,-0.16534c-0.27707,-0.44241 0.16533,-0.71947 0.16533,-0.71947c0.97281,-0.56687 0.84804,-1.62601 0.96921,-2.60789c0.39951,-3.23693 -1.97412,-5.00226 -5.17114,-5.00209c-2.28173,1.06936 -5.48634,3.82844 -4.04732,6.64923c0.07154,0.0222 0.14646,0.06512 0.22195,0.13778c0.37609,0.362 0.0141,0.73809 0.0141,0.73809z"/><path d="M73.97329,220.94625c1.70414,0.17802 1.14107,1.63591 0.37633,2.53808c0.86552,-0.30936 2.31506,-0.95683 2.59403,0.24662c0.18191,0.78469 -1.97198,3.78319 -2.4029,4.53456c0,0 -0.25997,0.45266 -0.71263,0.19269c-0.45266,-0.25997 -0.1927,-0.71263 -0.1927,-0.71263c0.63779,-1.10886 1.24088,-3.03618 2.29033,-3.78254c0.00146,-0.00104 0.00287,-0.00203 0.00422,-0.00299c-0.08567,0.05968 -0.35772,0.24551 -0.48264,0.29564c-0.37951,0.15226 -0.77742,0.25854 -1.17677,0.34662l-0.59502,0.21104c-0.18274,0.06917 -0.39701,0.03242 -0.54715,-0.11209c-0.15816,-0.15223 -0.19956,-0.38016 -0.12204,-0.57193l0.3649,-0.96531l0.19714,0.07452c0.18612,-0.4038 0.38674,-0.75672 0.56915,-1.32925c0.19045,-0.59778 -1.1789,0.43288 -1.75065,0.69117c-0.67318,0.3041 -1.40833,0.57212 -2.01775,0.96626l-0.74651,-0.16974c0,0 -0.3761,-0.362 -0.01411,-0.7381c0.1763,-0.18317 0.35595,-0.19126 0.49387,-0.15137c1.03796,-0.62419 2.88407,-1.66434 3.87088,-1.56125z"/><path d="M68.51039,231.4347c0.05477,0.05272 0.10906,0.10596 0.16289,0.15969c0.03187,-0.02123 0.06597,-0.04196 0.10242,-0.06209c0.73748,-0.40767 1.51846,0.27379 2.18194,1.21958c1.4117,1.25045 2.94603,2.32101 4.28095,3.63364l0.04999,-0.0729l0.74006,0.50755c0.02629,0.01735 0.05136,0.03733 0.07486,0.05996c0.20771,0.19993 0.21402,0.53038 0.0141,0.73809c-0.12765,0.13261 -0.3085,0.18313 -0.47664,0.1503l-0.52126,-0.09393l0.00879,-0.04877l-0.11454,0.0179c-0.02811,-0.0189 -0.05796,-0.03837 -0.08931,-0.0584l-0.6831,0.11093l-0.03813,-0.23478c-0.04028,-0.01275 -0.08026,-0.02579 -0.11993,-0.0391c-1.9926,0.0548 -3.58709,-2.06329 -5.04282,-3.83128c-0.13603,-0.14291 -0.28605,-0.31376 -0.41622,-0.49796c-0.28314,-0.33177 -0.56181,-0.64035 -0.83804,-0.90623l0.52318,-0.22096z"/></g><g fill="none" stroke="#736a67" stroke-width="2" stroke-linecap="round"><path d="M-3.33334,76h53.44286"/><path d="M35.36666,22l34.09286,19.33334"/><path d="M37.20952,130.66666l34.09286,-19.33333" data-paper-data="{&quot;index&quot;:null}"/><path d="M459.22381,78h53.44286" data-paper-data="{&quot;index&quot;:null}"/><path d="M439.87381,43.33334l34.09286,-19.33334" data-paper-data="{&quot;index&quot;:null}"/><path d="M472.12381,132.66666l-34.09286,-19.33333" data-paper-data="{&quot;index&quot;:null}"/></g></g></g></svg>