<svg version="1.1" xmlns="http://www.w3.org/2000/svg" xmlns:xlink="http://www.w3.org/1999/xlink" width="562" height="187.41441" viewBox="0,0,562,187.41441"><g transform="translate(42.33333,-19.25225)"><g data-paper-data="{&quot;isPaintingLayer&quot;:true}" fill-rule="nonzero" stroke-linejoin="miter" stroke-miterlimit="10" stroke-dasharray="" stroke-dashoffset="0" style="mix-blend-mode: normal"><path d="M44.33335,54.25225v-34h19v34z" fill="#736a67" stroke="#736a67" stroke-width="2" stroke-linecap="butt"/><path d="M94.25181,28.05372c4.85858,-1.25134 8.79118,1.15483 13.26337,2.32471c2.32045,1.56146 5.01684,1.97748 7.15127,4.10371c0.64392,0.64144 1.42861,2.32901 2.36074,2.28213c5.07204,0.03723 7.92086,1.10179 9.90431,6.06045c1.08278,4.40214 -1.97275,8.37566 -5.41632,10.61109c-3.27399,0.85645 -10.25675,0.49139 -13.31038,-1.0248c-3.47424,-2.30923 -7.5901,-3.64615 -11.6368,-4.6778c-1.36994,-0.68497 -3.50875,-1.49641 -5.03047,-1.68697c-2.30558,-0.28872 -5.1616,0.65707 -7.26981,-0.40713c-2.32407,-3.29686 -2.98567,-8.76193 0.08709,-11.83469c0.88988,-1.35003 2.29399,-2.65409 3.90351,-3.52645c0.02298,-0.08617 0.06839,-0.16318 0.12961,-0.22439l0.04308,-0.04309c0.41021,-0.18505 0.82683,-0.36173 1.25329,-0.53203c0,0 0.19253,-0.07701 0.36718,-0.24857c1.32847,-0.5745 3.02596,-1.15807 4.20033,-1.17616zM92.92627,29.25905c0.08764,0.01175 0.17508,0.02551 0.26229,0.04134l-0.02014,0.00604l0.00309,0.0103c-0.01172,-0.00003 -0.02344,-0.00006 -0.03516,-0.00009l-0.02648,0.02523l-0.00523,-0.01394l-0.42554,0.15958l-0.50762,0.07252l0.01598,0.11184l-0.00078,0.0003c-0.7709,-0.06621 -1.37042,0.17438 -2.54663,0.88696l-0.24647,0.23455c-1.7715,0.82156 -3.36523,2.30696 -4.26543,3.64473c-2.76227,2.76227 -2.04596,7.40194 -0.19863,10.45103c1.77414,0.86823 4.76219,-0.08134 6.73019,0.1643c1.58441,0.19776 3.82785,1.0279 5.25524,1.74159c4.08476,0.99698 8.30162,2.4157 11.79178,4.75078c1.40264,0.70773 2.73299,0.4832 4.22687,0.64917c2.57277,0.28585 5.65185,0.91838 8.17703,0.32603c2.92372,-2.02206 5.86762,-5.48343 4.86939,-9.38891c-1.80357,-4.50894 -4.33248,-5.39549 -8.95283,-5.36812c-1.65933,-0.04969 -2.26801,-1.9757 -3.45986,-2.97047c-2.02254,-1.68812 -4.38868,-2.13443 -6.45671,-3.50085c-4.1428,-0.97182 -7.55729,-3.1416 -11.92945,-2.41246c-0.09378,-0.02912 -0.19348,-0.0448 -0.29684,-0.0448c-0.10806,0 -0.21213,0.01714 -0.30961,0.04885l-0.5948,0.17844c-0.32236,0.03056 -0.68037,0.10019 -1.05366,0.19608z" fill="#736a67" stroke="none" stroke-width="0.5" stroke-linecap="butt"/><path d="M107.61888,51.55411l0.24386,0.9095c-1.8871,0.47178 -3.89292,1.14628 -5.83555,1.15779c-4.31765,0 -8.29543,-2.19541 -12.43061,-2.30717c-3.66886,-2.27729 -8.74905,1.54866 -12.09892,-1.73298c-3.20885,-4.76861 5.16414,-3.77223 6.96647,-5.01873c0,0 0.41602,-0.27735 0.69337,0.13867c0.27735,0.41602 -0.13867,0.69338 -0.13867,0.69338c-1.30028,0.84409 -8.8208,0.40776 -6.74782,3.5527c2.93868,3.0406 8.29837,-1.09028 11.61536,1.40988c1.45458,-0.05282 2.78199,0.73409 4.13776,1.14134c2.49434,0.74927 5.4063,1.12292 8.00307,1.12292c1.72869,0.01269 3.55861,-0.59656 5.25683,-1.04173c0.1423,-0.10113 0.31459,-0.10113 0.31459,-0.10113l0.00511,0.01906c0.00549,-0.00138 0.01099,-0.00275 0.01648,-0.00413z" fill="#736a67" stroke="none" stroke-width="0.5" stroke-linecap="butt"/><path d="M92.5236,51.61781c-0.35356,0.35356 -0.7071,0 -0.7071,0l-0.15577,-0.19206c-1.207,-0.60568 -2.40261,-1.27155 -3.74323,-1.53082c-3.52698,-0.89802 -7.05772,-1.72919 -10.74745,-1.7021c0,0 -0.5,0 -0.5,-0.5c0,-0.5 0.5,-0.5 0.5,-0.5c3.78252,0.0224 7.33567,0.83964 10.96684,1.72647c1.42662,0.29345 2.68245,0.97028 3.97105,1.61203l0.41566,0.37938c0,0 0.35356,0.35356 0,0.70711z" fill="#736a67" stroke="none" stroke-width="0.5" stroke-linecap="butt"/><path d="M89.59862,44.90711c0.10036,0 0.18057,0.02014 0.24469,0.05235c2.86677,-0.99079 2.48793,-5.0235 1.6236,-7.2771c-2.20618,-2.12371 -5.01685,-2.4821 -6.89124,0.01711c-0.56857,0.7581 -1.35822,1.40613 -1.06341,2.44352c0,0 0.12126,0.48507 -0.3638,0.60634c-0.48507,0.12127 -0.60634,-0.3638 -0.60634,-0.3638c-0.51843,-2.27598 2.18705,-5.24432 4.37363,-5.60492c1.6608,-0.2739 4.27128,1.20931 5.386,2.35126c1.23935,3.01046 1.38099,7.86653 -2.58186,8.90317l-0.62127,-0.62793c0,0 0,-0.5 0.5,-0.5z" fill="#736a67" stroke="none" stroke-width="0.5" stroke-linecap="butt"/><path d="M91.42977,41.83174c0.12168,0.06408 0.24028,0.18899 0.24028,0.43251c0,0.5 -0.5,0.5 -0.5,0.5l-0.62793,-0.37873c-0.15876,-0.6768 -0.48806,-1.35008 -0.75063,-2.0071c-0.22301,-0.55802 -0.4834,-2.17887 -0.74904,-1.63983c-0.25442,0.51627 -0.35039,0.89309 -0.49017,1.29538l0.18555,0.07952l-0.38938,0.90855c-0.07389,0.18384 -0.25384,0.31363 -0.46411,0.31363c-0.1996,0 -0.37189,-0.11696 -0.45206,-0.28608l-0.27044,-0.54088c-0.21709,-0.32605 -0.42109,-0.6637 -0.58186,-1.02086c-0.05292,-0.11757 -0.11722,-0.42653 -0.1367,-0.52462c0.00029,0.00156 0.0006,0.00318 0.00092,0.00487c0.22847,1.21217 -0.63553,2.94282 -0.93194,4.1317c0,0 -0.12127,0.48507 -0.60634,0.3638c-0.48507,-0.12127 -0.3638,-0.60634 -0.3638,-0.60634c0.20171,-0.80476 0.70702,-4.30475 1.35378,-4.72544c0.9919,-0.6452 1.56218,0.76446 1.95399,1.55287c0.07151,-1.13057 0.65131,-2.5107 1.94561,-1.50159c0.74948,0.58434 1.33259,2.52841 1.63428,3.64864z" fill="#736a67" stroke="none" stroke-width="0.5" stroke-linecap="butt"/><path d="M86.38433,49.54997l0.21429,0.5c-0.36723,0 -0.76453,0.02785 -1.1803,0.06874c-0.21218,0.04065 -0.4292,0.0589 -0.618,0.06717c-2.17898,0.25316 -4.68629,0.65575 -6.025,-0.70564c-0.03622,-0.01716 -0.07246,-0.03472 -0.10873,-0.05268l-0.18226,0.1367l-0.39773,-0.5303c-0.03494,-0.007 -0.06848,-0.01339 -0.10043,-0.01902l-0.06715,-0.08843l-0.02633,0.03949l-0.42212,-0.28141c-0.13785,-0.08903 -0.2291,-0.24402 -0.2291,-0.42033c0,-0.27614 0.22386,-0.5 0.5,-0.5c0.03125,0 0.06183,0.00287 0.09149,0.00835l0.84785,0.14131l-0.01392,0.08353c1.79314,-0.01915 3.56311,0.2612 5.36793,0.33597c1.08611,-0.21199 2.07771,-0.1635 2.31587,0.60769c0.01177,0.03811 0.02155,0.07506 0.02944,0.11089c0.07284,-0.00133 0.14567,-0.00202 0.21849,-0.00202z" fill="#736a67" stroke="none" stroke-width="0.5" stroke-linecap="butt"/><g fill="none" stroke-width="2" stroke-linecap="round"><path d="M-41.33333,149h58" stroke="#736a67"/><path d="M0.66667,95l37,19.33333" stroke="#736a67"/><path d="M39.66667,184.33333l-37,19.33333" data-paper-data="{&quot;index&quot;:null}" stroke="#736a67"/><path d="M518.66667,151h-58" data-paper-data="{&quot;index&quot;:null}" stroke="#736a67"/><path d="M439.66667,116.33334l37,-19.33334" data-paper-data="{&quot;index&quot;:null}" stroke="#736a67"/><path d="M474.66667,205.66667l-37,-19.33334" data-paper-data="{&quot;index&quot;:null}" stroke="#736a67"/></g></g></g></svg>