<svg version="1.1" xmlns="http://www.w3.org/2000/svg" xmlns:xlink="http://www.w3.org/1999/xlink" width="562.00003" height="329.48041" viewBox="0,0,562.00003,329.48041"><g transform="translate(42.33331,2.36474)"><g data-paper-data="{&quot;isPaintingLayer&quot;:true}" stroke-linejoin="miter" stroke-miterlimit="10" stroke-dasharray="" stroke-dashoffset="0" style="mix-blend-mode: normal"><path d="M44.33338,54.25226v-34h19v34z" fill="#736a67" fill-rule="nonzero" stroke="#736a67" stroke-width="2" stroke-linecap="butt"/><path d="M94.25185,28.05373c4.85858,-1.25134 8.79118,1.15483 13.26337,2.32471c2.32045,1.56146 5.01684,1.97748 7.15127,4.10371c0.64392,0.64144 1.42861,2.32901 2.36074,2.28213c5.07204,0.03723 7.92086,1.10179 9.90431,6.06045c1.08278,4.40214 -1.97275,8.37566 -5.41632,10.61109c-3.27399,0.85645 -10.25675,0.49139 -13.31038,-1.0248c-3.47424,-2.30923 -7.5901,-3.64615 -11.6368,-4.6778c-1.36994,-0.68497 -3.50875,-1.49641 -5.03047,-1.68697c-2.30558,-0.28872 -5.1616,0.65707 -7.26981,-0.40713c-2.32407,-3.29686 -2.98567,-8.76193 0.08709,-11.83469c0.88988,-1.35003 2.29399,-2.65409 3.90351,-3.52645c0.02298,-0.08617 0.06839,-0.16318 0.12961,-0.22439l0.04308,-0.04309c0.41021,-0.18505 0.82683,-0.36173 1.25329,-0.53203c0,0 0.19253,-0.07701 0.36718,-0.24857c1.32847,-0.5745 3.02596,-1.15807 4.20033,-1.17616zM92.92631,29.25906c0.08764,0.01175 0.17508,0.02551 0.26229,0.04134l-0.02014,0.00604l0.00309,0.0103c-0.01172,-0.00003 -0.02344,-0.00006 -0.03516,-0.00009l-0.02648,0.02523l-0.00523,-0.01394l-0.42554,0.15958l-0.50762,0.07252l0.01598,0.11184l-0.00078,0.0003c-0.7709,-0.06621 -1.37042,0.17438 -2.54663,0.88696l-0.24647,0.23455c-1.7715,0.82156 -3.36523,2.30696 -4.26543,3.64473c-2.76227,2.76227 -2.04596,7.40194 -0.19863,10.45103c1.77414,0.86823 4.76219,-0.08134 6.73019,0.1643c1.58441,0.19776 3.82785,1.0279 5.25524,1.74159c4.08476,0.99698 8.30162,2.4157 11.79178,4.75078c1.40264,0.70773 2.73299,0.4832 4.22687,0.64917c2.57277,0.28585 5.65185,0.91838 8.17703,0.32603c2.92372,-2.02206 5.86762,-5.48343 4.86939,-9.38891c-1.80357,-4.50894 -4.33248,-5.39549 -8.95283,-5.36812c-1.65933,-0.04969 -2.26801,-1.9757 -3.45986,-2.97047c-2.02254,-1.68812 -4.38868,-2.13443 -6.45671,-3.50085c-4.1428,-0.97182 -7.55729,-3.1416 -11.92945,-2.41246c-0.09378,-0.02912 -0.19348,-0.0448 -0.29684,-0.0448c-0.10806,0 -0.21213,0.01714 -0.30961,0.04885l-0.5948,0.17844c-0.32236,0.03056 -0.68037,0.10019 -1.05366,0.19608z" fill="#736a67" fill-rule="nonzero" stroke="none" stroke-width="0.5" stroke-linecap="butt"/><path d="M107.61891,51.55412l0.24386,0.9095c-1.8871,0.47178 -3.89292,1.14628 -5.83555,1.15779c-4.31765,0 -8.29543,-2.19541 -12.43061,-2.30717c-3.66886,-2.27729 -8.74905,1.54866 -12.09892,-1.73298c-3.20885,-4.76861 5.16414,-3.77223 6.96647,-5.01873c0,0 0.41602,-0.27735 0.69337,0.13867c0.27735,0.41602 -0.13867,0.69338 -0.13867,0.69338c-1.30028,0.84409 -8.8208,0.40776 -6.74782,3.5527c2.93868,3.0406 8.29837,-1.09028 11.61536,1.40988c1.45458,-0.05282 2.78199,0.73409 4.13776,1.14134c2.49434,0.74927 5.4063,1.12292 8.00307,1.12292c1.72869,0.01269 3.55861,-0.59656 5.25683,-1.04173c0.1423,-0.10113 0.31459,-0.10113 0.31459,-0.10113l0.00511,0.01906c0.00549,-0.00138 0.01099,-0.00275 0.01648,-0.00413z" fill="#736a67" fill-rule="nonzero" stroke="none" stroke-width="0.5" stroke-linecap="butt"/><path d="M92.52364,51.61782c-0.35356,0.35356 -0.7071,0 -0.7071,0l-0.15577,-0.19206c-1.207,-0.60568 -2.40261,-1.27155 -3.74323,-1.53082c-3.52698,-0.89802 -7.05772,-1.72919 -10.74745,-1.7021c0,0 -0.5,0 -0.5,-0.5c0,-0.5 0.5,-0.5 0.5,-0.5c3.78252,0.0224 7.33567,0.83964 10.96684,1.72647c1.42662,0.29345 2.68245,0.97028 3.97105,1.61203l0.41566,0.37938c0,0 0.35356,0.35356 0,0.70711z" fill="#736a67" fill-rule="nonzero" stroke="none" stroke-width="0.5" stroke-linecap="butt"/><path d="M89.59866,44.90712c0.10036,0 0.18057,0.02014 0.24469,0.05235c2.86677,-0.99079 2.48793,-5.0235 1.6236,-7.2771c-2.20618,-2.12371 -5.01685,-2.4821 -6.89124,0.01711c-0.56857,0.7581 -1.35822,1.40613 -1.06341,2.44352c0,0 0.12126,0.48507 -0.3638,0.60634c-0.48507,0.12127 -0.60634,-0.3638 -0.60634,-0.3638c-0.51843,-2.27598 2.18705,-5.24432 4.37363,-5.60492c1.6608,-0.2739 4.27128,1.20931 5.386,2.35126c1.23935,3.01046 1.38099,7.86653 -2.58186,8.90317l-0.62127,-0.62793c0,0 0,-0.5 0.5,-0.5z" fill="#736a67" fill-rule="nonzero" stroke="none" stroke-width="0.5" stroke-linecap="butt"/><path d="M91.4298,41.83175c0.12168,0.06408 0.24028,0.18899 0.24028,0.43251c0,0.5 -0.5,0.5 -0.5,0.5l-0.62793,-0.37873c-0.15876,-0.6768 -0.48806,-1.35008 -0.75063,-2.0071c-0.22301,-0.55802 -0.4834,-2.17887 -0.74904,-1.63983c-0.25442,0.51627 -0.35039,0.89309 -0.49017,1.29538l0.18555,0.07952l-0.38938,0.90855c-0.07389,0.18384 -0.25384,0.31363 -0.46411,0.31363c-0.1996,0 -0.37189,-0.11696 -0.45206,-0.28608l-0.27044,-0.54088c-0.21709,-0.32605 -0.42109,-0.6637 -0.58186,-1.02086c-0.05292,-0.11757 -0.11722,-0.42653 -0.1367,-0.52462c0.00029,0.00156 0.0006,0.00318 0.00092,0.00487c0.22847,1.21217 -0.63553,2.94282 -0.93194,4.1317c0,0 -0.12127,0.48507 -0.60634,0.3638c-0.48507,-0.12127 -0.3638,-0.60634 -0.3638,-0.60634c0.20171,-0.80476 0.70702,-4.30475 1.35378,-4.72544c0.9919,-0.6452 1.56218,0.76446 1.95399,1.55287c0.07151,-1.13057 0.65131,-2.5107 1.94561,-1.50159c0.74948,0.58434 1.33259,2.52841 1.63428,3.64864z" fill="#736a67" fill-rule="nonzero" stroke="none" stroke-width="0.5" stroke-linecap="butt"/><path d="M86.38437,49.54998l0.21429,0.5c-0.36723,0 -0.76453,0.02785 -1.1803,0.06874c-0.21218,0.04065 -0.4292,0.0589 -0.618,0.06717c-2.17898,0.25316 -4.68629,0.65575 -6.025,-0.70564c-0.03622,-0.01716 -0.07246,-0.03472 -0.10873,-0.05268l-0.18226,0.1367l-0.39773,-0.5303c-0.03494,-0.007 -0.06848,-0.01339 -0.10043,-0.01902l-0.06715,-0.08843l-0.02633,0.03949l-0.42212,-0.28141c-0.13785,-0.08903 -0.2291,-0.24402 -0.2291,-0.42033c0,-0.27614 0.22386,-0.5 0.5,-0.5c0.03125,0 0.06183,0.00287 0.09149,0.00835l0.84785,0.14131l-0.01392,0.08353c1.79314,-0.01915 3.56311,0.2612 5.36793,0.33597c1.08611,-0.21199 2.07771,-0.1635 2.31587,0.60769c0.01177,0.03811 0.02155,0.07506 0.02944,0.11089c0.07284,-0.00133 0.14567,-0.00202 0.21849,-0.00202z" fill="#736a67" fill-rule="nonzero" stroke="none" stroke-width="0.5" stroke-linecap="butt"/><g fill="none" fill-rule="nonzero" stroke="#736a67" stroke-width="2" stroke-linecap="round"><path d="M16.6667,149h-58"/><path d="M0.66671,95.00001l37,19.33333"/><path d="M2.66671,203.66669l37,-19.33333" data-paper-data="{&quot;index&quot;:null}"/><path d="M460.66673,151h58" data-paper-data="{&quot;index&quot;:null}"/><path d="M439.66671,116.33335l37,-19.33334" data-paper-data="{&quot;index&quot;:null}"/><path d="M437.66672,186.33335l37,19.33334" data-paper-data="{&quot;index&quot;:null}"/></g><g fill-rule="nonzero" stroke="#736a67" stroke-width="1.5"><path d="M250.73994,12.92912c3.65981,-0.65731 8.53508,-0.50686 12.59812,1.49912c3.92375,1.93721 7.0519,5.67332 9.70916,8.29434c1.31957,1.30157 -2.23302,-0.25232 -6.39662,0.29143c-2.81773,0.36799 -5.81043,2.06596 -8.41877,3.94839c-3.39873,2.45287 -5.77813,6.41349 -6.91647,10.31206c-0.95376,3.26643 -0.96247,6.57012 -0.68298,8.12622c0.36968,2.05824 1.85291,7.8953 5.44637,11.42951c2.81741,2.77095 7.15292,4.39115 10.36585,5.15814c7.41307,1.76965 14.03208,-4.96689 12.53325,-2.08343c-1.52905,2.94164 -3.30823,7.92253 -6.61653,11.03661c-3.81846,3.5943 -9.31481,5.16708 -12.96825,5.82325c-6.99888,1.25702 -16.48243,0.02439 -23.75653,-5.6709c-6.21784,-4.86829 -10.6989,-13.53817 -11.98829,-20.71728c-1.2808,-7.13127 -0.45967,-17.4205 4.25171,-24.18103c5.58031,-8.00736 15.80124,-12.00227 22.83998,-13.26646z" fill="none" stroke-linecap="butt"/><path d="M264.88007,23.8293c10.46391,-2.15103 18.28281,1.03578 21.29873,11.65419c3.01592,10.61841 -1.73798,22.9792 -11.95188,25.88022c-10.21391,2.90103 -19.94736,-2.27021 -22.96328,-12.88862c-3.01591,-10.61841 2.81921,-21.57811 13.03311,-24.47913z" fill="none" stroke-linecap="butt"/><path d="M315.02484,30.21064l-11.09131,17.43532l-2.15641,-23.31421" fill="none" stroke-linecap="round"/><path d="M303.31111,49.6653c0,0 -5.29157,0.81213 -8.1082,0.75808c-2.51427,-0.04824 -7.98773,-1.06693 -7.98773,-1.06693" fill="none" stroke-linecap="round"/><path d="M296.97907,37.06065c0,0 -0.90533,5.72862 -3.23628,8.31426c-2.6906,3.05363 -6.82651,3.66392 -6.82651,3.66392" fill="none" stroke-linecap="round"/><path d="M306.78784,10.45959l-5.33177,13.61354c0,0 -6.20353,1.37154 -9.13506,2.20417c-2.78109,0.78991 -7.16944,2.38448 -7.16944,2.38448c0,0 0.74098,-1.19226 1.77197,-2.04295c0.93663,-0.77282 3.15251,-3.12569 4.8202,-5.9237c1.99041,-3.33946 2.09615,-7.41683 2.09615,-7.41683" fill="none" stroke-linecap="round"/><path d="M278.69125,35.9759c0,0 0.58754,3.87371 0.72189,5.15012c0.14044,1.33422 0.57504,5.04719 0.57504,5.04719c0,0 -2.35631,-0.43703 -3.11933,-1.15305c-0.76302,-0.71602 -1.24808,-1.86256 -1.42959,-3.24668c-0.18151,-1.38412 -0.11938,-2.60985 0.50233,-3.82409c0.62171,-1.21425 2.74967,-1.97349 2.74967,-1.97349z" data-paper-data="{&quot;index&quot;:null}" fill="none" stroke-linecap="round"/><path d="M265.49371,28.82054c1.72934,-0.49118 3.51947,0.47749 3.99837,2.16359c0.4789,1.6861 -0.53478,3.45114 -2.26412,3.94232c-1.72934,0.49118 -3.51947,-0.4775 -3.99837,-2.1636c-0.4789,-1.6861 0.53478,-3.45113 2.26412,-3.9423z" fill="#736a67" stroke-linecap="butt"/><path d="M233.4194,37.58524c5.69281,-1.84527 11.96389,1.76822 14.00688,8.07098c2.04298,6.30275 -0.91579,12.90802 -6.60859,14.75329c-5.69281,1.84527 -11.96389,-1.76822 -14.00687,-8.07098c-2.04298,-6.30275 0.91579,-12.90802 6.60859,-14.75329z" fill="none" stroke-linecap="butt"/><path d="M248.03004,76.63386c-0.36863,-5.71859 2.87115,-10.96863 8.09416,-12.4521c5.65726,-1.60682 11.65798,1.76859 14.04235,7.64658" fill="none" stroke-linecap="butt"/><path d="M256.23731,12.56226c1.06136,6.25376 -2.26918,12.27949 -7.92643,13.88631c-5.223,1.48347 -10.73875,-1.27974 -13.43114,-6.33834" data-paper-data="{&quot;index&quot;:null}" fill="none" stroke-linecap="butt"/><path d="M282.94611,29.11637l3.44445,-1.66667l-3.11111,1.55556" fill="none" stroke-linecap="round"/><path d="M286.81835,27.69414c0,0.25 -0.25,0.25 -0.25,0.25l-0.36388,-0.00187c-0.16794,-0.04609 -0.34169,-0.05354 -0.51897,-0.034c-0.02862,0.04354 -0.07046,0.0776 -0.11982,0.09647l-0.33992,0.13899c0.00741,0.00424 0.01459,0.00886 0.0215,0.01382c0.0788,-0.00195 0.15922,0.0001 0.24173,0.00702l0.01423,-0.11384l0.49284,0.06161c0.12502,0.01379 0.22228,0.11978 0.22228,0.24848c0,0.11898 -0.08311,0.21853 -0.19444,0.2438l-0.26159,0.0654c-0.19913,0.04848 -0.40542,0.09976 -0.61501,0.14513c-0.03331,0.19567 -0.24563,0.19566 -0.24563,0.19566c-0.29442,0 -0.58876,0.00173 -0.88313,-0.00321l-0.36561,0.12187c-0.02642,0.0095 -0.0549,0.01467 -0.08459,0.01467c-0.0741,0 -0.14066,-0.03223 -0.18644,-0.08344c-0.1441,0.01118 -0.28297,0.01677 -0.41356,0.01677h-0.2c0,0 -0.25,0 -0.25,-0.25c0,-0.25 0.25,-0.25 0.25,-0.25h0.2c0.0325,0 0.06462,-0.00052 0.09638,-0.00154c-0.00314,-0.01029 -0.00588,-0.0212 -0.0082,-0.03276c-0.04903,-0.24514 0.19612,-0.29418 0.19612,-0.29418c0.03508,-0.00692 0.07014,-0.01465 0.10519,-0.02311c0.03485,-0.05426 0.09011,-0.09417 0.15494,-0.10888l0.48,-0.12l0.00273,0.01094c0.74523,-0.30949 1.49258,-0.74121 2.27004,-0.56193l0.30279,-0.00187c0,0 0.25,0 0.25,0.25z" fill="#736a67" stroke-linecap="butt"/><path d="M266.99371,46.07054c1.72933,-0.49117 3.51947,0.47749 3.99836,2.16359c0.4789,1.6861 -0.53478,3.45114 -2.26412,3.94232c-1.72933,0.49117 -3.51947,-0.47751 -3.99837,-2.1636c-0.47889,-1.6861 0.53479,-3.45113 2.26412,-3.94231z" fill="#736a67" stroke-linecap="butt"/></g><g fill="none" stroke="#736a67" stroke-width="2" stroke-linecap="butt"><path d="M367.06156,63.74317l-21.25527,10.25044c-1.86495,0.9056 -3.95678,-0.7257 -3.53671,-2.75749l4.78869,-23.11c0.16951,-0.80469 -0.07177,-1.64128 -0.64029,-2.2367l-16.32207,-17.04461c-1.43206,-1.49779 -0.52672,-3.98673 1.53194,-4.21684l23.45756,-2.58277c0.81813,-0.09134 1.5391,-0.5758 1.92736,-1.30207l11.17076,-20.7902c0.97991,-1.82642 3.62983,-1.73492 4.48584,0.1549l9.70567,21.51106c0.33725,0.75132 1.02308,1.28436 1.83295,1.43191l23.22353,4.19467c2.03788,0.37156 2.77381,2.91716 1.23742,4.31247l-17.45448,15.8783c-0.61266,0.55463 -0.90666,1.37273 -0.79747,2.18705l3.1832,23.38527c0.28334,2.05607 -1.91603,3.5392 -3.71407,2.50712l-20.4976,-11.69217c-0.71666,-0.41008 -1.58374,-0.44002 -2.32697,-0.08035z" fill-rule="evenodd"/><path d="M364.94345,35.2294c-0.19245,5.57334 -2.25367,10.02563 -4.60387,9.94448c-2.3502,-0.08115 -4.09941,-4.66502 -3.90696,-10.23836c0.19245,-5.57334 2.25367,-10.02563 4.60387,-9.94448c2.3502,0.08115 4.09941,4.66502 3.90696,10.23836z" fill-rule="nonzero"/><path d="M382.43623,35.58552c-0.19245,5.57334 -2.25367,10.02563 -4.60387,9.94448c-2.3502,-0.08115 -4.09941,-4.66502 -3.90696,-10.23836c0.19245,-5.57334 2.25368,-10.02564 4.60388,-9.94448c2.3502,0.08115 4.09941,4.66502 3.90696,10.23836z" fill-rule="nonzero"/><path d="M362.28045,28.62498c-0.05072,1.46888 -1.07847,2.62557 -2.29553,2.58354c-1.21707,-0.04203 -2.16258,-1.26685 -2.11186,-2.73573c0.05072,-1.46888 1.07847,-2.62557 2.29554,-2.58354c1.21707,0.04203 2.16258,1.26685 2.11186,2.73573z" fill-rule="nonzero"/><path d="M380.12647,28.44552c-0.05072,1.46888 -1.07847,2.62557 -2.29553,2.58355c-1.21707,-0.04203 -2.16258,-1.26685 -2.11186,-2.73573c0.05072,-1.46888 1.07847,-2.62557 2.29554,-2.58354c1.21707,0.04203 2.16258,1.26685 2.11186,2.73573z" fill-rule="nonzero"/></g><path d="M120.47458,259.16666c0,14.26736 -16.78932,25.83334 -37.5,25.83334c-20.71068,0 -37.5,-11.56598 -37.5,-25.83334c0,-14.26735 16.78932,-25.83333 37.5,-25.83333c20.71068,0 37.5,11.56597 37.5,25.83333z" fill="none" fill-rule="nonzero" stroke="#736a67" stroke-width="1.5" stroke-linecap="butt"/><path d="M111.14125,259.16666c0,10.21727 -12.61064,18.5 -28.16666,18.5c-15.55602,0 -28.16667,-8.28273 -28.16667,-18.5c0,-10.21727 12.61065,-18.5 28.16667,-18.5c15.55602,0 28.16666,8.28273 28.16666,18.5z" fill="none" fill-rule="nonzero" stroke="#736a67" stroke-width="1.5" stroke-linecap="butt"/><path d="M100.14125,259.66666c0,6.07513 -8.05887,11 -18,11c-9.94112,0 -18,-4.92487 -18,-11c0,-6.07513 8.05888,-11 18,-11c9.94113,0 18,4.92487 18,11z" fill="none" fill-rule="nonzero" stroke="#736a67" stroke-width="1.5" stroke-linecap="butt"/><path d="M90.47458,284.75001l2,32.33333c0,0 -1.42309,1.08266 -3.08889,1.53587c-2.04147,0.55541 -4.53109,0.83337 -6.24308,0.80334c-1.77675,-0.03117 -4.53576,-0.40662 -6.65238,-1.03584c-1.71989,-0.51128 -3.01565,-1.6367 -3.01565,-1.6367l2,-32.33334" fill="none" fill-rule="nonzero" stroke="#736a67" stroke-width="1.5" stroke-linecap="round"/><path d="M73.5098,311.21538c0,0 -2.00536,0.14457 -4.85196,0.03192c-5.22858,-0.2069 -13.62865,-2.21928 -17.31965,-3.46126c-1.90036,-0.76471 -9.279,-3.79885 -12.29873,-6.22601c-1.37138,-1.10227 -2.37964,-2.73648 -3.10798,-4.37311c-1.28379,-2.88479 -0.78034,-5.01246 -0.78034,-5.01246c0,0 0.4294,-1.97989 2.55146,-3.42146c1.45092,-0.98565 3.26419,-2.0771 5.25704,-2.95824c4.52642,-2.00137 12.38946,-0.50267 15.02457,0.53776c5.45104,2.15223 16.02151,13.16546 16.02151,13.16546" fill="none" fill-rule="nonzero" stroke="#736a67" stroke-width="1.5" stroke-linecap="round"/><path d="M91.55387,299.3313c0,0 10.57048,-11.01322 16.02152,-13.16546c2.63511,-1.04042 10.49815,-2.53913 15.02457,-0.53775c1.99284,0.88114 3.80611,1.97258 5.25703,2.95823c2.12206,1.44157 2.55146,3.42146 2.55146,3.42146c0,0 0.50345,2.12767 -0.78034,5.01246c-0.72833,1.63663 -1.7366,3.27085 -3.10798,4.37311c-3.01973,2.42717 -10.39837,5.46131 -12.29873,6.22602c-2.48039,0.83463 -6.93688,2.56064 -11.18016,3.11455c-5.50871,0.71909 -10.65811,0.14811 -10.65811,0.14811" data-paper-data="{&quot;index&quot;:null}" fill="none" fill-rule="nonzero" stroke="#736a67" stroke-width="1.5" stroke-linecap="round"/><path d="M43.97458,293.16667c0,0 10.5467,3.44292 15.24295,5.56804c5.19731,2.35186 14.42371,8.59863 14.42371,8.59863" fill="none" fill-rule="nonzero" stroke="#736a67" stroke-width="1.5" stroke-linecap="round"/><path d="M92.14125,306.33333c0,0 9.22641,-6.24677 14.42372,-8.59863c4.69625,-2.12512 15.24295,-5.56804 15.24295,-5.56804" data-paper-data="{&quot;index&quot;:null}" fill="none" fill-rule="nonzero" stroke="#736a67" stroke-width="1.5" stroke-linecap="round"/><path d="M77.0079,259.25c0,3.4978 -1.38046,6.33333 -3.08333,6.33333c-1.70288,0 -3.08333,-2.83553 -3.08333,-6.33333c0,-3.4978 1.38046,-6.33333 3.08333,-6.33333c1.70288,0 3.08333,2.83553 3.08333,6.33333z" fill="none" fill-rule="nonzero" stroke="#736a67" stroke-width="1.5" stroke-linecap="butt"/><path d="M93.64125,259.41667c0,3.49781 -1.38046,6.33333 -3.08334,6.33333c-1.70288,0 -3.08333,-2.83553 -3.08333,-6.33333c0,-3.4978 1.38045,-6.33334 3.08333,-6.33334c1.70288,0 3.08334,2.83553 3.08334,6.33334z" fill="none" fill-rule="nonzero" stroke="#736a67" stroke-width="1.5" stroke-linecap="butt"/><path d="M75.6222,255.96667c0,1.18741 -0.77924,2.15 -1.74048,2.15c-0.96124,0 -1.74048,-0.96259 -1.74048,-2.15c0,-1.18741 0.77924,-2.15 1.74048,-2.15c0.96124,0 1.74048,0.96259 1.74048,2.15z" fill="none" fill-rule="nonzero" stroke="#736a67" stroke-width="1.5" stroke-linecap="butt"/><path d="M92.4222,256.26667c0,1.18741 -0.77923,2.15 -1.74048,2.15c-0.96124,0 -1.74047,-0.96259 -1.74047,-2.15c0,-1.18741 0.77923,-2.15 1.74047,-2.15c0.96124,0 1.74048,0.96259 1.74048,2.15z" fill="none" fill-rule="nonzero" stroke="#736a67" stroke-width="1.5" stroke-linecap="butt"/><path d="M163.86371,324.14233l4.11295,-25.16115l-12.00719,-25.6633l24.50019,-23.12687l-7.04643,24.62864l10.79269,21.50364z" data-paper-data="{&quot;index&quot;:null}" fill="none" fill-rule="nonzero" stroke="#736a67" stroke-width="1.5" stroke-linecap="round"/><g fill-rule="nonzero" stroke="#736a67" stroke-width="1.5"><path d="M205.50005,39.75c0,11.73605 -16.45431,13.75 -27.5,13.75c-11.04569,0 -28.5,-2.51395 -28.5,-14.25c0,-5.71558 3.63979,-11.06436 9.163,-16.58698c5.81786,-5.81723 13.67067,-11.66302 19.337,-11.66302c5.12742,0 11.4203,4.6662 16.69175,9.76882c6.08453,5.88966 10.80825,12.69301 10.80825,18.98118z" fill="none" stroke-linecap="butt"/><path d="M190.85734,51.89319c-2.3346,5.81475 -7.42871,9.84692 -13.33716,9.84692c-5.81121,0 -10.83467,-3.90055 -13.21967,-9.56131" fill="none" stroke-linecap="butt"/><path d="M175.3764,62.7065c0,1.6857 0.65659,4.22365 -1.01945,5.4077c-2.03648,1.43869 -7.05526,1.06849 -10.41954,1.06849c-6.13313,0 -10.60403,-3.45394 -10.60403,-7.18786c0,-3.73392 4.13692,-6.76086 10.27005,-6.76086c1.58864,0 2.23267,0.90426 3.0616,1.83413c0.84444,0.94727 1.86817,1.9265 2.89114,2.59442c0.83185,0.54313 1.75873,0.85309 2.89446,1.19181c1.38955,0.41442 2.92577,0.8719 2.92577,1.85216z" fill="none" stroke-linecap="butt"/><path d="M182.25232,61.0223c1.13573,-0.33872 2.0626,-0.64868 2.89446,-1.19181c1.02298,-0.66792 2.0467,-1.64715 2.89114,-2.59442c0.82894,-0.92987 1.47296,-1.83413 3.0616,-1.83413c6.13313,0 10.27005,3.02694 10.27005,6.76086c0,3.73392 -4.4709,7.18786 -10.60403,7.18786c-3.36429,0 -8.38306,0.3702 -10.41954,-1.06849c-1.67604,-1.18405 -1.01945,-3.722 -1.01945,-5.4077c0,-0.98026 1.53622,-1.43774 2.92577,-1.85216z" data-paper-data="{&quot;index&quot;:null}" fill="none" stroke-linecap="butt"/><path d="M154.80003,44.15c0,0 2.46999,-3.36807 8.57679,-5.54114c3.9681,-1.41203 11.32063,-2.37284 14.22186,-2.35977c3.48661,0.01571 10.45496,1.11098 14.74793,2.90674c4.8594,2.0327 6.85342,5.19417 6.85342,5.19417" fill="none" stroke-linecap="round"/><path d="M156.81752,42.07182c-0.03111,-0.17231 -0.06063,-0.34636 -0.0885,-0.52203c-0.81618,-5.14501 0.09664,-9.73344 2.03884,-10.24853c1.74253,-0.46214 3.72164,2.51158 4.6996,6.84363" fill="none" stroke-linecap="butt"/><path d="M191.69138,38.35851c1.43745,-4.202 3.72442,-6.94602 5.40725,-6.29946c1.87566,0.72066 2.29054,5.38057 0.92664,10.4082c-0.04657,0.17166 -0.09461,0.34153 -0.14404,0.5095" data-paper-data="{&quot;index&quot;:null}" fill="none" stroke-linecap="butt"/><path d="M192.40004,25.3c0,3.42417 -2.85995,6.2 -6.38788,6.2c-3.52793,0 -6.38788,-2.77583 -6.38788,-6.2c0,-3.42417 2.85995,-6.2 6.38788,-6.2c3.52793,0 6.38788,2.77583 6.38788,6.2z" fill="none" stroke-linecap="butt"/><path d="M175.00005,25.7c0,3.42416 -2.85995,6.2 -6.38788,6.2c-3.52793,0 -6.38788,-2.77583 -6.38788,-6.2c0,-3.42416 2.85996,-6.2 6.38788,-6.2c3.52793,0 6.38788,2.77584 6.38788,6.2z" fill="none" stroke-linecap="butt"/><path d="M156.60003,13.2c0,0 -0.3298,3.17068 4.41936,4.97536c2.53689,0.96402 9.28714,0.29937 11.7488,2.85179c2.59227,2.68785 2.13183,4.77285 2.13183,4.77285" fill="none" stroke-linecap="round"/><path d="M179.67038,24.8c0,0 -0.66044,-1.485 1.93184,-4.17285c2.46166,-2.55242 9.11191,-1.88776 11.6488,-2.85178c4.74916,-1.80468 4.41936,-4.97536 4.41936,-4.97536" data-paper-data="{&quot;index&quot;:null}" fill="none" stroke-linecap="round"/><path d="M171.1667,25.72917c0,1.44975 -1.14727,2.625 -2.5625,2.625c-1.41523,0 -2.5625,-1.17525 -2.5625,-2.625c0,-1.44975 1.14727,-2.625 2.5625,-2.625c1.41523,0 2.5625,1.17525 2.5625,2.625z" fill="#736a67" stroke-linecap="butt"/><path d="M188.54171,25.35417c0,1.44975 -1.14727,2.625 -2.5625,2.625c-1.41523,0 -2.5625,-1.17525 -2.5625,-2.625c0,-1.44974 1.14727,-2.625 2.5625,-2.625c1.41523,0 2.5625,1.17526 2.5625,2.625z" fill="#736a67" stroke-linecap="butt"/></g></g></g></svg>