<svg version="1.1" xmlns="http://www.w3.org/2000/svg" xmlns:xlink="http://www.w3.org/1999/xlink" width="598" height="424" viewBox="0,0,598,424"><g transform="translate(51,27)"><g data-paper-data="{&quot;isPaintingLayer&quot;:true}" fill-rule="nonzero" stroke-linejoin="miter" stroke-miterlimit="10" stroke-dasharray="" stroke-dashoffset="0" style="mix-blend-mode: normal"><path d="M-51,397v-424h598v424z" fill="#000000" stroke="none" stroke-width="0" stroke-linecap="butt"/><path d="M237.02102,252.47566l4.11295,-25.16115l-12.00719,-25.6633l24.50019,-23.12687l-7.04643,24.62864l10.79269,21.50364z" data-paper-data="{&quot;index&quot;:null}" fill="none" stroke="#736a67" stroke-width="1.5" stroke-linecap="round"/><path d="M302.17029,140.06799c-1.37265,2.82753 -5.23823,7.53685 -5.7893,11.96576c-0.66548,5.3484 1.27507,10.84015 -2.94813,15.1237c-4.2232,4.28355 -10.02471,2.20558 -14.57877,2.65367c-5.6953,0.56039 -9.72548,2.83743 -16.94033,2.93512c-7.21486,0.09769 -10.93622,-6.04104 -15.6816,-6.04104c-5.53704,0 -11.87327,4.64472 -19.06882,2.48924c-7.19555,-2.15548 -4.21491,-8.47181 -9.35254,-10.08385c-3.8702,-1.21436 -6.87512,4.47506 -11.39241,3.14733c-4.51729,-1.32773 -10.9766,-5.74091 -12.81172,-7.66773c-1.90019,-1.99514 -5.18662,-9.18449 -5.15287,-14.45998c0.04061,-6.34771 5.60373,-12.92407 8.35154,-14.5647c4.48423,-2.6774 6.03536,4.46178 12.19291,-0.7964c3.98632,-3.40408 3.1447,-11.82392 8.08121,-14.19147c12.56181,-6.02463 13.34342,6.82597 17.19669,5.53052c7.8624,-2.64328 2.20398,-10.96451 11.95601,-10.96451c3.79147,0 12.65265,0.07209 16.71111,3.39258c5.50156,4.50117 5.2562,9.1888 9.51081,10.48025c6.10384,1.85276 13.3003,-7.68139 20.85299,-3.82594c7.55269,3.85545 12.17325,18.05912 8.86322,24.87745z" fill="none" stroke="#736a67" stroke-width="1.5" stroke-linecap="butt"/><path d="M231.25,140.26866c0,0 -4.41164,-2.66306 -7.03692,-2.35462c-3.6145,0.42466 -7.38991,2.1056 -8.99373,4.13255c-1.52783,1.93091 -0.96935,4.22207 -0.96935,4.22207" fill="none" stroke="#736a67" stroke-width="1.5" stroke-linecap="round"/><path d="M286.40039,152.38918c0,0 0.55849,2.29115 -0.96934,4.22206c-1.60383,2.02695 -5.37923,3.70789 -8.99373,4.13255c-2.62528,0.30844 -7.03692,-2.35461 -7.03692,-2.35461" data-paper-data="{&quot;index&quot;:null}" fill="none" stroke="#736a67" stroke-width="1.5" stroke-linecap="round"/><path d="M240.33739,137.38279c0,0 -2.30572,-1.39183 -3.6778,-1.23062c-1.88909,0.22195 -3.86228,1.10048 -4.70051,2.15985c-0.79851,1.00918 -0.50662,2.20663 -0.50662,2.20663" fill="none" stroke="#736a67" stroke-width="1.5" stroke-linecap="round"/></g></g></svg>