<svg version="1.1" xmlns="http://www.w3.org/2000/svg" xmlns:xlink="http://www.w3.org/1999/xlink" width="598" height="424" viewBox="0,0,598,424"><g transform="translate(59,32)"><g data-paper-data="{&quot;isPaintingLayer&quot;:true}" fill-rule="nonzero" stroke-linejoin="miter" stroke-miterlimit="10" stroke-dasharray="" stroke-dashoffset="0" style="mix-blend-mode: normal"><path d="M-59,392v-424h598v424z" fill="#000000" stroke="none" stroke-width="0" stroke-linecap="butt"/><path d="M297.26223,173.27791c0,18.97142 -26.59852,22.22699 -44.45397,22.22699c-17.85545,0 -46.07048,-4.06382 -46.07048,-23.03524c0,-9.23928 5.88375,-17.88563 14.81206,-26.81299c9.40462,-9.4036 22.09875,-18.85337 31.25842,-18.85337c8.28852,0 18.46101,7.54295 26.98235,15.79138c9.83569,9.52068 17.47162,20.51835 17.47162,30.68323z" fill="none" stroke="#736a67" stroke-width="1.5" stroke-linecap="butt"/><path d="M273.59217,192.90747c-3.7739,9.39959 -12.00857,15.91763 -21.55963,15.91763c-9.39387,0 -17.51433,-6.30527 -21.3697,-15.45593" fill="none" stroke="#736a67" stroke-width="1.5" stroke-linecap="butt"/><path d="M248.5671,210.38727c0,2.72495 1.06138,6.82756 -1.64795,8.74159c-3.29199,2.32565 -11.40488,1.72722 -16.84327,1.72722c-9.91425,0 -17.1415,-5.58332 -17.1415,-11.61923c0,-6.03591 6.68736,-10.92898 16.60162,-10.92898c2.56805,0 3.60913,1.46174 4.9491,2.96489c1.36504,1.53127 3.01991,3.1142 4.67355,4.1939c1.34469,0.87797 2.843,1.37903 4.67892,1.92657c2.24622,0.66991 4.72953,1.40943 4.72953,2.99403z" fill="none" stroke="#736a67" stroke-width="1.5" stroke-linecap="butt"/><path d="M259.68208,207.66475c1.83592,-0.54754 3.33421,-1.0486 4.67892,-1.92657c1.65366,-1.0797 3.30851,-2.66263 4.67355,-4.1939c1.33999,-1.50314 2.38105,-2.96489 4.9491,-2.96489c9.91425,0 16.60162,4.89307 16.60162,10.92898c0,6.03591 -7.22725,11.61923 -17.1415,11.61923c-5.4384,0 -13.55128,0.59843 -16.84327,-1.72722c-2.70933,-1.91403 -1.64795,-6.01664 -1.64795,-8.74159c0,-1.5846 2.48331,-2.32412 4.72953,-2.99403z" data-paper-data="{&quot;index&quot;:null}" fill="none" stroke="#736a67" stroke-width="1.5" stroke-linecap="butt"/><path d="M215.30524,180.39054c0,0 3.99276,-5.44451 13.86445,-8.9573c6.41447,-2.28256 18.29989,-3.83571 22.98975,-3.81459c5.63613,0.0254 16.90053,1.79591 23.84015,4.69877c7.85526,3.28588 11.07861,8.39642 11.07861,8.39642" fill="none" stroke="#736a67" stroke-width="1.5" stroke-linecap="round"/><path d="M218.56652,177.03115c-0.05029,-0.27854 -0.09801,-0.55989 -0.14306,-0.84387c-1.31936,-8.31695 0.15622,-15.73418 3.2958,-16.56683c2.81681,-0.74705 6.01606,4.05999 7.59694,11.06278" fill="none" stroke="#736a67" stroke-width="1.5" stroke-linecap="butt"/><path d="M274.9404,171.02855c2.32365,-6.79257 6.02055,-11.2283 8.74086,-10.18313c3.03202,1.16495 3.70268,8.69773 1.49792,16.82494c-0.07528,0.27749 -0.15294,0.55209 -0.23284,0.82361" data-paper-data="{&quot;index&quot;:null}" fill="none" stroke="#736a67" stroke-width="1.5" stroke-linecap="butt"/><path d="M276.08595,149.91937c0,5.5352 -4.62313,10.02235 -10.32606,10.02235c-5.70293,0 -10.32606,-4.48715 -10.32606,-10.02235c0,-5.5352 4.62313,-10.02235 10.32606,-10.02235c5.70293,0 10.32606,4.48715 10.32606,10.02235z" fill="none" stroke="#736a67" stroke-width="1.5" stroke-linecap="butt"/><path d="M247.95873,150.56597c0,5.53518 -4.62313,10.02235 -10.32606,10.02235c-5.70293,0 -10.32606,-4.48715 -10.32606,-10.02235c0,-5.53518 4.62315,-10.02235 10.32606,-10.02235c5.70293,0 10.32606,4.48717 10.32606,10.02235z" fill="none" stroke="#736a67" stroke-width="1.5" stroke-linecap="butt"/><path d="M218.21495,130.35962c0,0 -0.53312,5.12543 7.14393,8.04271c4.1009,1.55835 15.01274,0.48393 18.99203,4.60994c4.19043,4.34493 3.44612,7.71535 3.44612,7.71535" fill="none" stroke="#736a67" stroke-width="1.5" stroke-linecap="round"/><path d="M255.50836,149.11111c0,0 -1.06761,-2.40051 3.12283,-6.74545c3.97929,-4.12601 14.72948,-3.05158 18.83038,-4.60993c7.67706,-2.91728 7.14393,-8.04271 7.14393,-8.04271" data-paper-data="{&quot;index&quot;:null}" fill="none" stroke="#736a67" stroke-width="1.5" stroke-linecap="round"/><path d="M241.76209,150.61312c0,2.34353 -1.85457,4.24333 -4.1423,4.24333c-2.28773,0 -4.1423,-1.8998 -4.1423,-4.24333c0,-2.34353 1.85457,-4.24333 4.1423,-4.24333c2.28773,0 4.1423,1.8998 4.1423,4.24333z" fill="#736a67" stroke="#736a67" stroke-width="1.5" stroke-linecap="butt"/><path d="M269.84893,150.00693c0,2.34353 -1.85457,4.24333 -4.1423,4.24333c-2.28773,0 -4.1423,-1.8998 -4.1423,-4.24333c0,-2.34352 1.85457,-4.24333 4.1423,-4.24333c2.28773,0 4.1423,1.89982 4.1423,4.24333z" fill="#736a67" stroke="#736a67" stroke-width="1.5" stroke-linecap="butt"/></g></g></svg>