<svg version="1.1" xmlns="http://www.w3.org/2000/svg" xmlns:xlink="http://www.w3.org/1999/xlink" width="598" height="424" viewBox="0,0,598,424"><g transform="translate(59,32)"><g data-paper-data="{&quot;isPaintingLayer&quot;:true}" fill-rule="nonzero" stroke-linejoin="miter" stroke-miterlimit="10" stroke-dasharray="" stroke-dashoffset="0" style="mix-blend-mode: normal"><path d="M-59,392v-424h598v424z" fill="#000000" stroke="none" stroke-width="0" stroke-linecap="butt"/><path d="M215.13165,138.96899c4.89409,-0.87899 11.41356,-0.6778 16.84687,2.0047c5.24705,2.59054 9.43017,7.58666 12.9836,11.09163c1.7646,1.74053 -2.98611,-0.33742 -8.5539,0.38972c-3.76802,0.4921 -7.77001,2.76271 -11.25802,5.28c-4.54496,3.28011 -7.72682,8.57646 -9.24907,13.78983c-1.27542,4.36804 -1.28707,8.78591 -0.91332,10.86681c0.49436,2.75239 2.47781,10.55801 7.28317,15.28414c3.76759,3.70546 9.56526,5.87208 13.86176,6.89774c9.91315,2.36647 18.76444,-6.64199 16.76012,-2.78607c-2.04473,3.93372 -4.42394,10.59442 -8.84797,14.75874c-5.10625,4.80649 -12.45625,6.90969 -17.34183,7.78716c-9.35927,1.68095 -22.04117,0.03262 -31.76848,-7.58343c-8.31482,-6.51013 -14.30713,-18.10395 -16.03137,-27.70424c-1.71275,-9.53631 -0.61469,-23.29561 5.68561,-32.33615c7.46228,-10.70786 21.13025,-16.05007 30.54282,-17.74061z" fill="none" stroke="#736a67" stroke-width="2" stroke-linecap="butt"/><path d="M234.04056,153.54528c13.99289,-2.87647 24.44874,1.3851 28.48178,15.5846c4.03305,14.1995 -2.32412,30.729 -15.98268,34.60839c-13.65858,3.87941 -26.67466,-3.03584 -30.70771,-17.23534c-4.03303,-14.1995 3.77,-28.85539 17.42856,-32.73478z" fill="none" stroke="#736a67" stroke-width="2" stroke-linecap="butt"/><path d="M301.09679,162.07875l-14.83188,23.31543l-2.88367,-31.17699" fill="none" stroke="#736a67" stroke-width="2" stroke-linecap="round"/><path d="M285.43259,188.09454c0,0 -7.07617,1.08602 -10.84271,1.01374c-3.36221,-0.06451 -10.68161,-1.42676 -10.68161,-1.42676" fill="none" stroke="#736a67" stroke-width="2" stroke-linecap="round"/><path d="M276.96504,171.23894c0,0 -1.21065,7.66061 -4.32772,11.11827c-3.59801,4.08347 -9.12877,4.89959 -9.12877,4.89959" fill="none" stroke="#736a67" stroke-width="2" stroke-linecap="round"/><path d="M290.08187,135.6666l-7.12992,18.20474c0,0 -8.29569,1.8341 -12.21588,2.94753c-3.71902,1.05631 -9.58735,3.18865 -9.58735,3.18865c0,0 0.99088,-1.59435 2.36957,-2.73194c1.25251,-1.03346 4.2157,-4.17984 6.44583,-7.92148c2.66168,-4.4657 2.80308,-9.91818 2.80308,-9.91818" fill="none" stroke="#736a67" stroke-width="2" stroke-linecap="round"/><path d="M252.50961,169.78836c0,0 0.78569,5.18013 0.96535,6.88701c0.1878,1.78419 0.76897,6.74937 0.76897,6.74937c0,0 -3.15098,-0.58442 -4.17133,-1.54192c-1.02035,-0.9575 -1.669,-2.49071 -1.91172,-4.34163c-0.24272,-1.85092 -0.15964,-3.49003 0.67174,-5.11377c0.83138,-1.62376 3.677,-2.63905 3.677,-2.63905z" data-paper-data="{&quot;index&quot;:null}" fill="none" stroke="#736a67" stroke-width="2" stroke-linecap="round"/><path d="M234.86117,160.21983c2.31256,-0.65683 4.70642,0.63852 5.34683,2.89327c0.64041,2.25474 -0.71514,4.61505 -3.0277,5.27188c-2.31256,0.65683 -4.70642,-0.63854 -5.34683,-2.89328c-0.64041,-2.25474 0.71514,-4.61503 3.0277,-5.27185z" fill="#736a67" stroke="#736a67" stroke-width="2" stroke-linecap="butt"/><path d="M191.9697,171.94045c7.61273,-2.46759 15.99874,2.36456 18.73074,10.79294c2.73198,8.42837 -1.22464,17.26128 -8.83735,19.72888c-7.61273,2.46759 -15.99874,-2.36456 -18.73072,-10.79294c-2.73198,-8.42837 1.22464,-17.26128 8.83735,-19.72888z" fill="none" stroke="#736a67" stroke-width="2" stroke-linecap="butt"/><path d="M211.50782,224.15832c-0.49295,-7.6472 3.83945,-14.66783 10.82394,-16.6516c7.56519,-2.14872 15.58967,2.36505 18.77817,10.22541" fill="none" stroke="#736a67" stroke-width="2" stroke-linecap="butt"/><path d="M222.48302,138.4784c1.41931,8.36286 -3.03447,16.42078 -10.59964,18.56951c-6.98447,1.98377 -14.36042,-1.71134 -17.96083,-8.47596" data-paper-data="{&quot;index&quot;:null}" fill="none" stroke="#736a67" stroke-width="2" stroke-linecap="butt"/><path d="M258.19941,160.61543l4.6061,-2.22876l-4.16034,2.08018" fill="none" stroke="#736a67" stroke-width="0.5" stroke-linecap="round"/><path d="M263.37756,158.71355c0,0.33431 -0.33431,0.33431 -0.33431,0.33431l-0.4866,-0.0025c-0.22458,-0.06163 -0.45693,-0.0716 -0.69399,-0.04547c-0.03827,0.05822 -0.09422,0.10377 -0.16023,0.129l-0.45456,0.18586c0.00991,0.00567 0.01951,0.01185 0.02875,0.01848c0.10538,-0.00261 0.21292,0.00013 0.32325,0.00939l0.01903,-0.15223l0.65905,0.08239c0.16718,0.01844 0.29724,0.16018 0.29724,0.33228c0,0.15911 -0.11114,0.29223 -0.26002,0.32602l-0.34981,0.08746c-0.26629,0.06483 -0.54215,0.1334 -0.82242,0.19408c-0.04454,0.26166 -0.32847,0.26165 -0.32847,0.26165c-0.39371,0 -0.78732,0.00231 -1.18097,-0.00429l-0.48891,0.16297c-0.03533,0.0127 -0.07342,0.01962 -0.11312,0.01962c-0.09909,0 -0.1881,-0.0431 -0.24932,-0.11158c-0.1927,0.01495 -0.3784,0.02243 -0.55303,0.02243h-0.26745c0,0 -0.33431,0 -0.33431,-0.33431c0,-0.33431 0.33431,-0.33431 0.33431,-0.33431h0.26745c0.04346,0 0.08641,-0.0007 0.12888,-0.00206c-0.0042,-0.01376 -0.00786,-0.02835 -0.01097,-0.04381c-0.06557,-0.32781 0.26226,-0.39339 0.26226,-0.39339c0.04691,-0.00925 0.09379,-0.01959 0.14067,-0.0309c0.0466,-0.07256 0.1205,-0.12593 0.20719,-0.1456l0.64188,-0.16047l0.00365,0.01463c0.99656,-0.41387 1.99596,-0.99119 3.03562,-0.75144l0.40491,-0.0025c0,0 0.33431,0 0.33431,0.33431z" fill="#736a67" stroke="#736a67" stroke-width="0.5" stroke-linecap="butt"/><path d="M236.86705,183.28744c2.31255,-0.65682 4.70642,0.63852 5.34682,2.89327c0.64041,2.25474 -0.71514,4.61505 -3.0277,5.27188c-2.31255,0.65682 -4.70642,-0.63855 -5.34683,-2.89328c-0.6404,-2.25474 0.71515,-4.61503 3.0277,-5.27186z" fill="#736a67" stroke="#736a67" stroke-width="2" stroke-linecap="butt"/></g></g></svg>