<svg version="1.1" xmlns="http://www.w3.org/2000/svg" xmlns:xlink="http://www.w3.org/1999/xlink" width="598" height="424" viewBox="0,0,598,424"><g transform="translate(54,27)"><g data-paper-data="{&quot;isPaintingLayer&quot;:true}" fill-rule="nonzero" stroke-linejoin="miter" stroke-miterlimit="10" stroke-dasharray="" stroke-dashoffset="0" style="mix-blend-mode: normal"><path d="M-54,397v-424h598v424z" fill="#000000" stroke="none" stroke-width="0" stroke-linecap="butt"/><g stroke="#736a67" stroke-width="1.5"><path d="M297.05618,176.5887c-1.40371,18.91943 -28.1702,20.19802 -45.97671,18.87689c-17.8065,-1.32113 -45.64352,-7.46147 -44.23981,-26.38088c0.68362,-9.21395 7.191,-17.40126 16.75537,-25.64354c10.07462,-8.68198 23.43315,-17.16659 32.56772,-16.48886c8.26581,0.61328 17.8523,8.88821 25.73997,17.74454c9.10428,10.22233 15.90556,21.75484 15.15345,31.89187z" fill="none" stroke-linecap="butt"/><path d="M271.99859,194.41309c-4.45904,9.0946 -13.1534,14.98548 -22.67829,14.27879c-9.36812,-0.69506 -16.99979,-7.58388 -20.16753,-16.99472" fill="none" stroke-linecap="butt"/><path d="M245.74877,209.99336c-0.20162,2.71748 0.55329,6.88738 -2.29023,8.59569c-3.45504,2.0757 -11.50141,0.87863 -16.9249,0.47624c-9.88708,-0.73355 -16.6814,-6.83632 -16.23479,-12.85569c0.4466,-6.01937 7.47766,-10.40422 17.36475,-9.67066c2.56101,0.19001 3.49108,1.72478 4.71615,3.32295c1.24799,1.62807 2.78121,3.32911 4.35043,4.52821c1.27604,0.97506 2.73317,1.58561 4.52354,2.26748c2.19049,0.83427 4.61229,1.75551 4.49504,3.33576z" fill="none" stroke-linecap="butt"/><path d="M257.03473,208.10071c1.87141,-0.41019 3.40266,-0.79902 4.80864,-1.57509c1.72901,-0.95438 3.49645,-2.41054 4.97105,-3.83661c1.44753,-1.39988 2.59389,-2.78059 5.15491,-2.59058c9.88708,0.73355 16.19407,6.10802 15.74747,12.12738c-0.4466,6.01937 -8.06715,11.05263 -17.95422,10.31907c-5.4235,-0.40239 -13.55841,-0.40588 -16.66931,-2.96873c-2.56028,-2.10925 -1.19827,-6.12208 -0.99663,-8.83956c0.11724,-1.58026 2.64847,-2.13401 4.9381,-2.63588z" data-paper-data="{&quot;index&quot;:null}" fill="none" stroke-linecap="butt"/><path d="M214.79756,177.61778c0,0 4.38466,-5.13416 14.4892,-7.9069c6.56578,-1.8017 18.53353,-2.47118 23.20898,-2.10311c5.6188,0.44236 16.72133,3.04147 23.42713,6.44984c7.5906,3.85809 10.42698,9.19312 10.42698,9.19312" fill="none" stroke-linecap="round"/><path d="M218.29847,174.5089c-0.02954,-0.2815 -0.05632,-0.56561 -0.08023,-0.85214c-0.70037,-8.39177 1.31998,-15.67949 4.51255,-16.27756c2.86436,-0.53659 5.69917,4.494 6.75758,11.59456" fill="none" stroke-linecap="butt"/><path d="M274.96196,172.69391c2.81986,-6.60203 6.83484,-10.75206 9.47036,-9.50848c2.93751,1.3861 3.04897,8.94785 0.24893,16.88965c-0.0956,0.27115 -0.19338,0.53926 -0.29314,0.80413" data-paper-data="{&quot;index&quot;:null}" fill="none" stroke-linecap="butt"/><path d="M277.66625,151.72735c-0.40955,5.52003 -5.35202,9.65281 -11.03932,9.23085c-5.6873,-0.42196 -9.96575,-5.23888 -9.5562,-10.75892c0.40955,-5.52003 5.35202,-9.65281 11.03932,-9.23085c5.6873,0.42196 9.96575,5.23888 9.5562,10.75892z" fill="none" stroke-linecap="butt"/><path d="M249.56829,150.29101c-0.40955,5.52001 -5.35202,9.65281 -11.03932,9.23085c-5.6873,-0.42196 -9.96575,-5.23888 -9.5562,-10.75892c0.40955,-5.52001 5.35204,-9.65281 11.03932,-9.23085c5.6873,0.42196 9.96575,5.2389 9.5562,10.75892z" fill="none" stroke-linecap="butt"/><path d="M221.40112,127.9393c0,0 -0.91089,5.07193 6.52926,8.54926c3.97435,1.8575 14.93578,1.5934 18.59888,6.00254c3.85746,4.64308 2.86581,7.94917 2.86581,7.94917" fill="none" stroke-linecap="round"/><path d="M257.20487,149.39874c0,0 -0.88706,-2.47292 3.61337,-6.4959c4.27366,-3.82027 14.91489,-1.95337 19.11986,-3.20402c7.87186,-2.34125 7.71944,-7.49208 7.71944,-7.49208" data-paper-data="{&quot;index&quot;:null}" fill="none" stroke-linecap="round"/><path d="M243.38515,149.87955c-0.17339,2.3371 -2.16345,4.09449 -4.44491,3.92521c-2.28146,-0.16928 -3.99038,-2.20108 -3.81698,-4.53818c0.17339,-2.3371 2.16345,-4.09449 4.44491,-3.92521c2.28146,0.16928 3.99038,2.20108 3.81698,4.53818z" fill="#736a67" stroke-linecap="butt"/><path d="M271.43986,151.35319c-0.17339,2.3371 -2.16345,4.09449 -4.44491,3.92521c-2.28146,-0.16928 -3.99038,-2.20108 -3.81698,-4.53818c0.17339,-2.33709 2.16345,-4.09449 4.44491,-3.92521c2.28146,0.16928 3.99037,2.2011 3.81698,4.53818z" fill="#736a67" stroke-linecap="butt"/></g></g></g></svg>