<svg version="1.1" xmlns="http://www.w3.org/2000/svg" xmlns:xlink="http://www.w3.org/1999/xlink" width="598" height="424" viewBox="0,0,598,424"><g transform="translate(51,27)"><g data-paper-data="{&quot;isPaintingLayer&quot;:true}" fill-rule="nonzero" stroke-linejoin="miter" stroke-miterlimit="10" stroke-dasharray="" stroke-dashoffset="0" style="mix-blend-mode: normal"><path d="M-51,397v-424h598v424z" fill="#000000" stroke="none" stroke-width="0" stroke-linecap="butt"/><path d="M293.01333,155.1179c0,16.65891 -19.60361,30.16362 -43.78589,30.16362c-24.18228,0 -43.78589,-13.50471 -43.78589,-30.16362c0,-16.65889 19.60361,-30.16361 43.78589,-30.16361c24.18228,0 43.78589,13.5047 43.78589,30.16361z" fill="none" stroke="#736a67" stroke-width="1.5" stroke-linecap="butt"/><path d="M282.11551,155.1179c0,11.92992 -14.72448,21.60104 -32.88806,21.60104c-18.16358,0 -32.88807,-9.67112 -32.88807,-21.60104c0,-11.92992 14.72449,-21.60104 32.88807,-21.60104c18.16358,0 32.88806,9.67111 32.88806,21.60104z" fill="none" stroke="#736a67" stroke-width="1.5" stroke-linecap="butt"/><path d="M269.27165,155.70171c0,7.09347 -9.40972,12.84387 -21.01723,12.84387c-11.60749,0 -21.01723,-5.7504 -21.01723,-12.84387c0,-7.09347 9.40974,-12.84386 21.01723,-12.84386c11.6075,0 21.01723,5.75039 21.01723,12.84386z" fill="none" stroke="#736a67" stroke-width="1.5" stroke-linecap="butt"/><path d="M257.98461,184.98963l2.33525,37.75316c0,0 -1.66163,1.26414 -3.60666,1.79332c-2.38367,0.64851 -5.29061,0.97306 -7.28957,0.938c-2.07457,-0.03639 -5.29606,-0.47478 -7.76747,-1.20947c-2.00818,-0.59698 -3.52115,-1.91105 -3.52115,-1.91105l2.33525,-37.75318" fill="none" stroke="#736a67" stroke-width="1.5" stroke-linecap="round"/><path d="M238.42614,214.39123c0,0 -2.3415,0.16881 -5.66526,0.03727c-6.10502,-0.24158 -15.91314,-2.59128 -20.22284,-4.04145c-2.21891,-0.8929 -10.83438,-4.43563 -14.36029,-7.26964c-1.60126,-1.28704 -2.77852,-3.19518 -3.62895,-5.10614c-1.49899,-3.36835 -0.91115,-5.85267 -0.91115,-5.85267c0,0 0.50137,-2.31177 2.97914,-3.99498c1.69413,-1.15087 3.81135,-2.42527 6.13825,-3.45411c5.28516,-2.33685 14.46623,-0.58693 17.54304,0.6279c6.36477,2.51299 18.7071,15.37231 18.7071,15.37231" fill="none" stroke="#736a67" stroke-width="1.5" stroke-linecap="round"/><path d="M259.24482,205.34842c0,0 12.34234,-12.8593 18.70711,-15.3723c3.07682,-1.21482 12.25789,-2.96475 17.54305,-0.62789c2.32688,1.02884 4.4441,2.30323 6.13823,3.4541c2.47777,1.68321 2.97915,3.99498 2.97915,3.99498c0,0 0.58784,2.48432 -0.91114,5.85267c-0.85041,1.91097 -2.0277,3.81912 -3.62895,5.10614c-3.52591,2.83402 -12.14139,6.37675 -14.36029,7.26965c-2.89616,0.97454 -8.09967,2.98987 -13.05422,3.63663c-6.4321,0.83963 -12.44466,0.17293 -12.44466,0.17293" data-paper-data="{&quot;index&quot;:null}" fill="none" stroke="#736a67" stroke-width="1.5" stroke-linecap="round"/><path d="M204.35678,192.73379c0,0 12.31457,4.02004 17.79803,6.50138c6.0685,2.74609 16.84147,10.03996 16.84147,10.03996" fill="none" stroke="#736a67" stroke-width="1.5" stroke-linecap="round"/><path d="M259.59733,213.19083c0,0 10.77297,-7.29387 16.84148,-10.03996c5.48345,-2.48134 17.79803,-6.50137 17.79803,-6.50137" data-paper-data="{&quot;index&quot;:null}" fill="none" stroke="#736a67" stroke-width="1.5" stroke-linecap="round"/><path d="M242.2606,155.21521c0,4.08411 -1.61186,7.39494 -3.60017,7.39494c-1.98833,0 -3.60017,-3.31083 -3.60017,-7.39494c0,-4.08411 1.61186,-7.39495 3.60017,-7.39495c1.98833,0 3.60017,3.31083 3.60017,7.39495z" fill="none" stroke="#736a67" stroke-width="1.5" stroke-linecap="butt"/><path d="M261.6821,155.40982c0,4.08413 -1.61186,7.39495 -3.60019,7.39495c-1.98833,0 -3.60016,-3.31083 -3.60016,-7.39495c0,-4.08411 1.61184,-7.39496 3.60016,-7.39496c1.98833,0 3.60019,3.31083 3.60019,7.39496z" fill="none" stroke="#736a67" stroke-width="1.5" stroke-linecap="butt"/><path d="M240.64262,151.38152c0,1.38645 -0.90986,2.51039 -2.03222,2.51039c-1.12237,0 -2.03223,-1.12394 -2.03223,-2.51039c0,-1.38645 0.90986,-2.51039 2.03223,-2.51039c1.12237,0 2.03222,1.12394 2.03222,2.51039z" fill="none" stroke="#736a67" stroke-width="1.5" stroke-linecap="butt"/><path d="M260.2587,151.73181c0,1.38645 -0.90985,2.51039 -2.03222,2.51039c-1.12237,0 -2.03222,-1.12394 -2.03222,-2.51039c0,-1.38645 0.90985,-2.5104 2.03222,-2.5104c1.12236,0 2.03222,1.12395 2.03222,2.5104z" fill="none" stroke="#736a67" stroke-width="1.5" stroke-linecap="butt"/></g></g></svg>